<?xml version="1.0" standalone="no"?>
<!DOCTYPE svg PUBLIC "-//W3C//DTD SVG 20010904//EN"
 "http://www.w3.org/TR/2001/REC-SVG-20010904/DTD/svg10.dtd">
<svg version="1.0" xmlns="http://www.w3.org/2000/svg"
 width="2953.000000pt" height="1911.000000pt" viewBox="0 0 2953.000000 1911.000000"
 preserveAspectRatio="xMidYMid meet">

<g transform="translate(0.000000,1911.000000) scale(0.100000,-0.100000)"
fill="#000000" stroke="none">
<path d="M10955 19103 c-33 -9 -65 -35 -71 -57 -2 -11 2 -40 10 -64 19 -54 6
-63 -53 -33 -50 26 -49 26 -44 -3 7 -33 -10 -40 -48 -21 -36 19 -46 13 -50
-30 -4 -54 0 -61 56 -88 30 -15 55 -31 55 -37 0 -18 -39 -30 -99 -30 -34 0
-61 -4 -61 -8 0 -5 14 -21 30 -37 36 -35 37 -43 5 -55 -32 -12 -31 -20 5 -55
33 -31 39 -55 15 -55 -56 0 -204 118 -292 232 -43 56 -73 74 -73 43 0 -9 10
-29 21 -44 32 -43 18 -54 -56 -46 l-64 7 -6 -34 c-4 -19 -5 -48 -3 -64 3 -29
4 -29 80 -36 91 -8 140 -31 192 -89 42 -46 99 -159 94 -185 -7 -36 -29 -24
-65 37 -67 110 -96 136 -182 163 -88 28 -223 51 -245 43 -9 -4 -16 -12 -16
-19 0 -7 42 -59 94 -116 52 -56 98 -112 101 -122 4 -11 40 -43 81 -70 41 -28
74 -56 74 -62 0 -7 -19 -9 -55 -6 -42 4 -67 13 -102 37 -25 18 -49 29 -53 24
-4 -4 -15 -45 -25 -90 -20 -93 -17 -105 43 -130 40 -17 40 -21 1 -35 -17 -6
-34 -21 -39 -34 -5 -13 -14 -24 -19 -24 -5 0 -37 41 -71 90 -40 59 -80 104
-116 130 -29 23 -62 52 -71 67 -17 26 -17 26 24 62 l41 36 -28 23 c-16 12 -34
38 -40 57 -15 44 -25 44 -52 -1 l-21 -36 -16 26 c-18 30 -18 30 -63 12 -59
-25 -62 -34 -47 -132 12 -75 20 -98 61 -162 40 -64 45 -78 37 -101 -5 -14 -12
-32 -15 -40 -3 -10 -24 5 -69 49 l-65 64 2 57 c2 74 -29 129 -73 129 -28 0
-30 -2 -27 -40 1 -22 -1 -43 -5 -47 -11 -10 -76 57 -94 98 -20 46 -24 45 -128
-34 -49 -38 -104 -70 -145 -84 -141 -50 -150 -55 -150 -72 0 -9 28 -62 62
-116 97 -158 118 -195 110 -195 -4 0 -41 44 -82 97 -100 128 -126 147 -185
138 -36 -5 -48 -12 -55 -31 -7 -18 -17 -24 -40 -24 -49 0 -41 -40 21 -106 l52
-54 -17 -38 c-17 -37 -16 -39 8 -91 13 -29 22 -60 19 -67 -8 -21 -48 -17 -104
11 l-49 26 -37 -36 c-20 -19 -39 -35 -43 -35 -4 0 -52 -57 -106 -126 -146
-187 -131 -173 -149 -150 -15 20 -15 20 -30 0 -38 -48 -55 -94 -55 -153 0 -55
2 -61 35 -90 42 -36 58 -38 144 -11 56 18 72 19 118 10 29 -6 53 -15 53 -18 0
-21 -33 -50 -69 -61 -23 -6 -41 -17 -41 -22 0 -6 18 -36 40 -68 22 -31 40 -60
40 -65 0 -4 -34 -45 -76 -91 -87 -96 -122 -114 -234 -124 -74 -6 -75 -6 -93
-43 -15 -30 -36 -46 -112 -88 -116 -62 -175 -115 -175 -156 0 -39 24 -72 97
-139 47 -42 67 -69 82 -111 27 -70 26 -98 -1 -116 -12 -8 -18 -19 -14 -26 15
-24 62 -11 144 39 l84 52 47 -15 c81 -25 43 -73 -45 -57 -54 10 -65 6 -96 -41
-13 -19 -33 -36 -45 -38 -12 -2 -27 -10 -33 -18 -7 -8 -30 -14 -55 -14 -74 0
-80 -33 -19 -102 42 -47 69 -102 77 -152 8 -53 74 -120 142 -145 119 -45 218
-35 354 34 39 19 80 35 92 35 41 0 218 -101 288 -164 38 -33 83 -72 101 -86
33 -25 33 -27 46 -151 12 -122 14 -128 78 -263 36 -76 66 -146 66 -155 0 -10
-7 -26 -15 -37 -20 -27 -19 -28 20 -43 22 -8 45 -27 59 -49 13 -20 35 -48 50
-61 14 -14 26 -28 26 -32 0 -5 -14 -24 -31 -44 -28 -32 -30 -39 -20 -61 17
-37 14 -54 -14 -76 -38 -30 -58 -75 -50 -115 3 -19 12 -36 19 -39 6 -2 52 16
101 41 103 52 150 64 171 43 8 -8 19 -42 24 -75 6 -33 21 -91 35 -127 29 -76
30 -95 12 -121 -20 -26 -55 -14 -117 39 -58 50 -85 58 -128 40 -32 -13 -59
-51 -45 -64 4 -4 34 -17 66 -30 92 -36 88 -69 -8 -70 -63 0 -80 -10 -71 -43 7
-30 122 -207 134 -207 5 0 30 32 56 71 l47 71 -15 39 c-18 45 -20 75 -7 84 13
7 112 -31 123 -47 14 -23 9 -57 -16 -106 -13 -26 -27 -72 -31 -102 -9 -70 -40
-124 -100 -174 -49 -40 -83 -101 -106 -187 -12 -43 -10 -53 35 -190 26 -79 58
-160 71 -179 50 -76 108 -131 176 -166 38 -19 69 -38 69 -43 0 -15 -24 -28
-80 -44 -63 -19 -100 -42 -100 -63 0 -29 30 -72 147 -213 115 -137 174 -221
188 -269 5 -18 -1 -30 -28 -56 -51 -48 -37 -63 43 -50 54 9 65 8 85 -8 13 -10
32 -18 44 -18 15 0 28 -16 51 -62 58 -118 80 -116 105 10 25 126 69 298 95
365 14 38 46 86 91 138 86 100 99 125 99 191 0 96 40 207 83 229 12 6 56 45
98 85 56 54 84 74 103 74 15 0 29 -7 32 -15 8 -20 31 -19 38 3 4 9 55 67 114
128 114 117 192 223 192 262 0 13 -6 35 -14 50 -12 24 -21 64 -17 83 1 3 23
-16 50 -42 80 -81 89 -78 416 141 281 188 334 224 335 231 0 11 -117 59 -170
69 -37 7 -64 7 -90 -1 -50 -15 -84 -6 -98 26 -17 37 -2 60 61 91 78 39 79 40
56 79 -24 40 -22 78 4 83 30 6 57 -27 100 -118 50 -107 81 -150 110 -150 50 0
157 123 157 181 0 49 -133 233 -258 358 -84 83 -110 116 -101 122 25 15 122
22 152 11 27 -10 29 -9 42 21 7 18 16 53 19 79 8 56 20 66 48 41 15 -13 34
-18 75 -17 30 1 59 6 64 11 6 6 7 29 3 53 -7 45 -14 54 -98 123 -25 21 -46 45
-46 53 0 16 112 72 187 94 41 13 42 13 29 39 -8 14 -39 57 -71 95 -47 58 -115
170 -115 191 0 11 20 3 96 -40 43 -25 84 -45 91 -45 22 0 15 33 -26 118 -57
117 -107 191 -139 204 -76 33 -81 70 -18 156 84 114 120 120 196 32 29 -33 58
-60 66 -60 11 0 14 26 14 134 l0 134 -78 -5 c-63 -5 -80 -3 -91 11 -11 13 -7
25 29 82 23 36 39 68 36 71 -3 3 -32 -4 -65 -16 -32 -13 -70 -21 -82 -19 -21
3 -24 9 -27 48 -6 77 5 106 46 131 61 38 61 41 15 161 -15 40 -23 76 -20 90 4
14 40 48 92 87 47 34 85 66 85 69 0 4 -7 54 -15 112 l-15 104 38 41 c102 109
99 105 78 121 -29 21 -39 17 -56 -19 -14 -29 -19 -32 -67 -35 -50 -3 -53 -2
-53 21 0 70 62 187 98 187 10 0 36 -18 57 -40 53 -55 75 -53 123 13 77 104 75
98 46 140 l-25 37 -83 0 c-51 0 -97 6 -119 15 -36 15 -36 15 -82 -25 -47 -40
-85 -52 -85 -26 0 8 20 36 44 63 44 48 44 48 77 34 65 -26 106 -26 140 3 39
33 68 40 127 32 45 -6 50 -4 79 26 16 18 42 51 56 72 15 22 65 81 111 132 116
125 117 129 75 201 -19 31 -68 92 -109 134 -90 92 -138 113 -196 86 -42 -20
-88 -89 -105 -159 -8 -28 -19 -53 -27 -55 -7 -3 -30 11 -51 31 -37 37 -51 44
-51 26 0 -5 20 -23 45 -40 25 -17 45 -35 45 -40 0 -12 -73 -50 -95 -50 -27 0
-73 54 -80 93 -4 21 -10 37 -14 37 -4 0 -16 -19 -28 -42 -11 -24 -48 -76 -81
-116 -36 -43 -65 -89 -71 -110 -4 -20 -18 -77 -29 -126 -23 -94 -43 -126 -92
-146 -35 -15 -74 -10 -78 10 -1 8 19 45 46 82 27 36 54 79 60 95 6 15 32 80
57 145 l45 116 0 140 c0 127 -11 202 -29 202 -4 0 -44 -27 -89 -60 -59 -43
-83 -67 -87 -87 -10 -49 -55 -129 -93 -165 -30 -28 -158 -88 -189 -88 -7 0 13
18 84 75 58 46 101 99 110 134 7 29 -22 88 -48 96 -10 3 -52 8 -93 10 -93 5
-146 -10 -229 -63 -91 -59 -250 -134 -287 -135 -45 -3 -47 13 -7 64 74 99 282
211 392 213 28 0 82 -6 121 -14 l72 -14 83 38 c46 21 130 65 186 99 106 64
123 84 123 146 0 58 -92 144 -199 187 l-42 17 -33 -32 c-17 -17 -37 -31 -44
-31 -16 0 -15 29 3 60 27 47 16 200 -15 200 -5 0 -39 -25 -77 -55 -78 -63 -95
-66 -212 -35 -108 29 -139 26 -234 -20 -79 -38 -275 -100 -318 -100 -33 0 -17
23 32 47 161 78 213 104 284 142 l80 42 98 -12 c54 -6 126 -9 160 -7 58 4 65
7 115 52 28 27 52 52 52 57 0 12 -110 74 -180 102 -36 13 -92 28 -125 31 -105
12 -179 28 -220 49 -32 16 -63 21 -160 23 -66 1 -129 0 -140 -3z"/>
<path d="M7625 18711 c-64 -5 -71 -8 -83 -33 -18 -38 6 -87 58 -123 72 -50
126 -116 134 -164 10 -65 -3 -72 -72 -36 -55 29 -59 34 -104 126 -35 72 -58
105 -92 133 l-45 37 -38 -16 c-40 -17 -73 -43 -73 -57 0 -4 20 -18 45 -30 25
-12 45 -26 45 -30 0 -4 -22 -23 -50 -40 -27 -18 -48 -38 -45 -45 8 -23 -35
-63 -75 -69 -33 -5 -43 -14 -69 -56 -17 -27 -31 -52 -31 -55 0 -4 32 -39 70
-79 64 -65 70 -76 70 -113 0 -64 -21 -62 -85 8 -34 36 -77 70 -108 85 -61 28
-76 45 -102 106 -41 97 -65 111 -111 65 l-25 -25 22 -37 23 -36 -51 -46 c-28
-25 -49 -51 -46 -58 2 -7 27 -28 55 -48 58 -42 54 -58 -15 -59 -53 -1 -77 16
-77 55 0 16 -3 29 -6 29 -18 0 -47 -26 -69 -60 -15 -23 -33 -40 -44 -40 -10 0
-29 -8 -42 -19 -13 -10 -41 -24 -62 -30 -62 -21 -97 -57 -97 -100 0 -20 6 -45
13 -55 12 -17 15 -17 55 0 l43 17 28 -27 c33 -31 40 -32 89 -6 33 18 37 19 40
4 7 -32 -29 -104 -59 -119 -23 -12 -29 -22 -29 -48 0 -17 -4 -48 -9 -68 -12
-54 -2 -63 55 -54 27 4 73 7 102 7 67 -2 154 39 208 98 40 43 54 49 54 23 0
-9 -22 -38 -50 -65 -55 -53 -50 -57 35 -28 32 11 68 20 80 20 34 0 41 -31 13
-54 -19 -15 -34 -17 -84 -13 -72 5 -80 2 -90 -38 -18 -75 -47 -102 -74 -70
-16 19 -145 59 -161 50 -17 -11 -4 -85 20 -109 28 -28 89 -26 131 4 l31 22 43
-46 c37 -40 48 -46 83 -46 41 0 71 17 166 97 37 30 49 22 41 -27 -9 -57 13
-61 75 -15 95 69 135 124 160 217 25 96 60 176 85 198 16 13 20 12 33 -5 39
-54 30 -93 -42 -180 -78 -96 -77 -99 44 -91 70 5 101 3 106 -5 15 -24 -23 -42
-108 -49 -105 -10 -124 -16 -138 -42 -9 -17 -5 -28 21 -64 36 -50 37 -49 -65
-59 -42 -3 -82 -14 -101 -25 -17 -11 -45 -20 -61 -20 -16 0 -38 -6 -49 -14
-19 -15 -19 -16 6 -62 13 -25 39 -66 57 -90 19 -24 42 -63 53 -88 21 -49 43
-66 88 -66 16 0 32 -3 35 -6 5 -5 -29 -75 -49 -103 -6 -7 -143 51 -158 68 -9
9 -25 46 -37 82 -11 35 -37 95 -57 133 -28 54 -43 71 -71 83 -106 45 -101 44
-101 26 0 -9 -9 -34 -21 -57 l-20 -42 26 -104 c38 -150 65 -187 116 -160 30
16 39 3 46 -64 3 -34 15 -71 27 -89 27 -39 91 -77 131 -77 38 0 55 -16 55 -50
0 -42 -26 -67 -92 -89 -82 -28 -98 -27 -143 9 -62 49 -95 39 -201 -60 -94 -88
-93 -120 4 -120 41 0 66 6 99 26 71 41 79 21 33 -78 l-30 -64 21 -61 c27 -81
41 -93 83 -69 102 61 118 68 128 58 13 -13 -7 -54 -53 -113 -68 -85 -87 -101
-111 -93 -32 10 -128 76 -162 112 -29 31 -30 40 -10 109 5 19 1 21 -48 26 -29
3 -62 6 -73 8 -17 4 -19 -1 -16 -36 4 -64 34 -117 89 -164 70 -58 69 -64 -19
-99 -39 -15 -158 -108 -196 -151 l-33 -39 -104 0 -104 0 -31 48 c-52 80 -89
106 -160 113 -45 5 -70 3 -90 -8 -15 -7 -38 -11 -49 -8 -35 9 -27 -19 31 -104
29 -43 60 -91 68 -108 9 -16 30 -56 48 -89 25 -45 31 -65 26 -90 -9 -42 -72
-155 -106 -189 -36 -36 -42 -56 -30 -107 6 -29 24 -57 53 -87 47 -49 50 -49
167 -24 52 10 61 22 61 79 0 38 -6 49 -61 108 -60 65 -61 67 -53 108 4 22 8
77 9 121 1 78 2 81 38 118 20 21 37 43 37 48 0 5 7 9 15 9 8 0 16 -14 20 -35
3 -19 7 -50 10 -69 3 -20 23 -55 45 -82 l39 -47 -31 -54 c-29 -52 -31 -58 -25
-134 9 -113 44 -169 107 -169 14 0 38 -7 53 -15 26 -13 32 -13 67 5 49 25 62
25 85 0 28 -30 101 -53 174 -54 55 -1 71 3 98 23 27 20 35 22 47 11 13 -10 23
-8 56 9 49 25 68 26 91 5 11 -10 50 -20 104 -26 80 -8 88 -8 121 12 19 12 41
34 49 50 16 30 12 36 -47 73 -16 10 -28 22 -28 28 0 6 18 27 40 46 22 20 40
42 40 49 0 6 -37 51 -83 98 -94 98 -110 102 -171 56 -22 -17 -46 -30 -53 -30
-8 0 -23 16 -35 35 -25 44 -39 41 -56 -11 -19 -58 -39 -73 -126 -89 -102 -20
-100 -20 -113 15 -6 17 -16 30 -22 30 -6 0 -29 -17 -52 -37 l-41 -37 -85 88
c-76 78 -85 91 -79 116 5 25 2 29 -24 35 -56 12 -56 30 0 72 33 24 58 53 70
81 21 46 43 54 61 20 32 -63 97 -100 147 -84 11 4 32 24 47 46 32 46 56 51 75
15 19 -35 56 -57 92 -53 25 2 34 9 42 35 16 47 22 49 61 14 41 -36 45 -37 87
-15 47 24 96 13 173 -40 37 -25 76 -46 86 -46 13 0 35 24 65 73 26 39 57 84
70 100 13 15 21 34 18 41 -5 13 -57 39 -104 51 -14 4 -58 23 -98 43 -66 33
-75 35 -105 24 -43 -16 -77 -15 -77 1 0 6 21 39 47 71 l46 59 18 -21 c10 -13
34 -29 54 -38 33 -13 42 -13 90 1 63 18 102 49 111 88 5 24 0 33 -35 66 -22
21 -41 40 -41 43 0 3 38 7 85 10 47 2 88 8 92 11 3 4 -3 21 -15 37 -12 16 -22
37 -22 46 0 15 8 16 60 11 52 -6 61 -4 70 12 10 19 -4 81 -18 81 -4 0 -18 9
-31 19 l-25 19 40 12 c56 17 71 31 79 72 7 36 6 37 -63 83 -79 52 -104 55
-112 10 -7 -39 -30 -42 -69 -9 -35 29 -31 43 20 70 25 13 27 17 18 46 -6 21
-6 43 0 58 5 14 12 37 15 53 4 15 11 27 17 27 5 0 32 -20 58 -45 27 -25 58
-45 70 -45 27 0 141 105 141 130 0 9 -14 38 -31 64 -17 28 -26 53 -22 57 5 5
45 -15 92 -46 46 -30 87 -55 92 -55 19 0 8 47 -21 90 -16 25 -30 55 -30 67 0
34 47 81 119 118 78 39 105 66 120 118 8 31 49 78 200 230 200 201 241 249
241 279 0 39 -60 21 -258 -79 -148 -74 -195 -94 -204 -85 -17 17 36 69 118
117 35 21 64 39 64 41 0 2 -30 19 -67 38 -38 19 -65 35 -61 36 4 0 39 7 78 15
53 11 82 12 116 5 61 -14 91 -4 119 40 17 27 42 46 97 72 40 19 84 46 96 59
47 47 142 185 152 218 13 48 -4 75 -114 184 -88 88 -93 95 -99 144 -8 70 -31
113 -60 113 -26 0 -83 -39 -177 -121 -125 -108 -173 -130 -189 -86 -13 35 52
106 140 152 46 24 68 40 61 47 -5 5 -85 23 -177 39 -93 16 -175 31 -184 34
-24 7 -37 -6 -47 -50 -7 -30 -15 -41 -32 -43 -18 -3 -26 5 -44 45 -11 26 -22
49 -23 51 -1 2 -26 5 -54 6 l-51 4 0 -32 c0 -18 15 -56 36 -90 30 -50 34 -65
29 -95 -10 -55 -23 -73 -43 -62 -29 16 -135 171 -153 225 -19 56 -16 55 -114
47z"/>
<path d="M18686 17868 c-29 -46 -79 -108 -110 -139 -43 -44 -56 -63 -56 -86 0
-37 15 -51 72 -68 24 -7 43 -18 43 -25 0 -19 -86 -61 -120 -58 -28 3 -30 6
-48 83 -21 96 -37 117 -66 91 -11 -10 -28 -38 -37 -61 -13 -36 -14 -49 -4 -80
12 -37 46 -60 74 -49 31 12 24 -16 -9 -36 -20 -12 -34 -27 -32 -34 2 -6 28
-28 58 -49 44 -31 54 -44 52 -64 -4 -44 -19 -50 -63 -25 -42 24 -108 29 -141
12 -12 -7 -19 -21 -19 -41 0 -23 -6 -32 -27 -40 -48 -18 -57 -59 -22 -103 29
-36 59 -33 115 14 78 65 87 64 159 -14 35 -36 66 -66 69 -66 14 0 52 24 133
86 46 35 89 64 95 64 16 0 3 -80 -24 -141 -17 -42 -29 -55 -62 -69 l-41 -18
27 -12 c37 -18 75 -5 120 39 43 43 48 77 23 138 -19 45 -11 56 58 78 65 21 77
35 106 121 18 53 22 80 17 115 -8 52 -39 109 -60 109 -20 0 -65 -67 -110 -163
l-37 -78 -52 6 c-111 13 -110 12 -73 96 39 90 41 112 11 163 -15 25 -25 51
-23 58 3 7 27 24 54 38 75 38 67 53 -39 75 -36 7 -27 20 44 66 50 32 50 32 44
73 -16 101 -30 101 -99 -6z"/>
<path d="M19060 17910 c0 -26 48 -69 78 -70 31 0 28 25 -7 61 -35 34 -71 39
-71 9z"/>
<path d="M19195 17691 c-69 -31 -124 -135 -105 -200 4 -15 20 -47 35 -71 l27
-43 32 36 c17 20 48 43 68 52 20 8 39 19 42 24 5 8 -21 137 -40 204 -7 21 -9
21 -59 -2z"/>
<path d="M6330 17650 c-8 -5 -30 -10 -48 -10 -40 0 -34 -16 14 -36 52 -22 47
-58 -16 -127 -27 -30 -50 -62 -50 -71 0 -9 18 -39 40 -67 61 -78 50 -96 -40
-64 -39 14 -44 14 -56 -2 -7 -10 -14 -22 -14 -26 0 -11 33 -59 82 -118 21 -26
38 -55 38 -64 0 -10 -18 -36 -41 -57 -50 -48 -79 -48 -91 -1 -17 65 -48 50
-48 -24 0 -57 38 -99 136 -149 l77 -39 -54 -10 c-44 -9 -55 -14 -57 -32 -2
-16 6 -28 30 -43 46 -28 56 -26 112 20 26 22 56 40 65 40 29 0 62 -30 56 -50
-3 -11 4 -29 20 -48 14 -16 25 -35 25 -40 0 -13 -63 -32 -105 -32 -35 0 -155
-54 -155 -70 0 -5 7 -10 15 -10 9 0 31 -15 50 -33 18 -18 61 -46 94 -62 34
-16 61 -35 61 -43 0 -27 -57 -72 -91 -72 l-33 0 44 -45 c54 -55 104 -74 146
-54 27 13 30 20 36 82 3 38 9 76 12 84 12 30 45 -16 58 -79 21 -102 45 -57 54
102 8 140 8 140 51 140 20 0 55 9 77 20 57 27 136 98 136 120 0 35 -57 79
-111 86 -65 9 -77 29 -49 84 26 52 18 69 -57 111 -98 55 -103 62 -103 146 0
41 -5 83 -11 94 -5 11 -34 35 -62 53 -99 64 -101 67 -115 196 -11 100 -16 119
-40 149 -38 46 -63 62 -82 51z"/>
<path d="M21711 17525 c-29 -25 -66 -53 -83 -63 -20 -12 -32 -29 -40 -59 -5
-23 -32 -77 -59 -120 -68 -107 -67 -121 21 -204 38 -36 67 -69 64 -72 -3 -3
-32 4 -64 15 -32 11 -71 18 -87 16 -26 -3 -28 -6 -26 -42 5 -71 84 -156 130
-139 7 3 29 32 49 65 20 32 41 57 48 55 6 -2 15 -20 20 -40 12 -48 -2 -74 -60
-111 -25 -16 -44 -34 -42 -41 2 -7 46 -48 99 -91 53 -44 125 -104 160 -135 57
-50 71 -58 130 -68 36 -6 83 -11 104 -11 l38 0 -6 128 -5 127 34 31 c46 43 45
79 -5 164 -44 74 -64 95 -84 87 -7 -3 -30 -37 -51 -76 -56 -106 -71 -103 -41
9 22 81 20 96 -19 119 -43 27 -46 27 -91 -9 -33 -26 -134 -80 -149 -80 -3 0
-6 9 -6 19 0 23 79 105 122 127 18 9 40 13 55 9 53 -13 63 0 63 78 0 59 4 75
21 94 19 20 20 25 8 41 -8 11 -38 55 -68 98 -67 98 -90 124 -110 124 -9 0 -40
-21 -70 -45z"/>
<path d="M18110 17522 c-23 -11 -35 -24 -35 -38 0 -27 -20 -51 -48 -58 -12 -3
-30 -21 -41 -40 -10 -19 -25 -37 -32 -40 -19 -7 -47 25 -63 71 -8 21 -19 41
-24 45 -11 6 -120 2 -184 -8 -30 -4 -36 -12 -68 -81 -19 -42 -34 -77 -33 -78
21 -16 62 -27 127 -32 102 -8 107 -10 87 -58 -28 -67 -22 -97 32 -146 81 -76
119 -101 141 -94 11 3 48 25 82 47 l61 41 -72 18 c-107 28 -110 32 -50 95 27
29 50 57 50 63 0 16 70 54 118 63 25 4 48 10 51 13 3 3 -18 26 -47 51 -74 65
-78 76 -44 116 53 63 56 68 41 68 -8 0 -30 -8 -49 -18z"/>
<path d="M15587 17264 c-4 -4 -38 -6 -76 -5 -88 2 -91 -3 -91 -142 0 -124 0
-124 114 -164 44 -15 83 -35 88 -43 7 -11 -1 -32 -26 -75 -20 -33 -41 -78 -47
-100 -5 -22 -13 -47 -16 -55 -3 -9 -40 56 -92 161 -47 97 -92 183 -100 193
-20 23 -36 20 -50 -11 -9 -22 -58 -99 -109 -173 -2 -2 -9 0 -16 5 -7 6 -32 24
-54 41 -69 52 -268 72 -310 31 -24 -25 -2 -154 42 -246 57 -118 59 -195 5
-157 -13 9 -29 16 -36 16 -22 0 -14 -37 11 -53 16 -11 26 -30 31 -59 11 -63
44 -168 54 -168 5 0 12 17 15 38 14 75 28 93 41 52 10 -32 55 -80 74 -80 10 0
47 22 82 48 61 47 101 72 113 72 3 0 6 -13 6 -29 0 -20 -9 -36 -27 -51 -134
-103 -143 -112 -143 -146 0 -36 28 -64 66 -64 32 0 54 -10 54 -25 0 -21 -48
-73 -90 -96 -22 -12 -41 -28 -44 -36 -6 -15 107 -169 183 -248 88 -91 119 -72
166 100 39 144 162 517 178 539 12 16 16 10 35 -57 12 -41 22 -82 22 -90 0 -9
13 -18 30 -22 40 -9 39 -28 -6 -117 -29 -58 -34 -75 -26 -94 17 -35 45 -38
114 -9 72 31 108 41 108 30 0 -4 -16 -43 -36 -87 -20 -44 -34 -82 -31 -84 8
-8 66 46 96 90 16 22 44 79 64 126 40 97 37 116 -21 125 -85 15 -87 17 -87 76
0 46 -8 70 -57 164 -54 104 -62 113 -128 159 -81 57 -92 77 -58 113 48 51 67
55 232 48 l151 -7 35 38 c20 22 68 94 109 162 58 98 78 123 99 128 57 11 73
32 47 58 -19 19 -78 21 -156 5 l-54 -11 -96 64 c-167 112 -206 121 -224 56
-13 -49 -28 -62 -59 -54 -20 5 -30 19 -47 66 -20 55 -35 71 -52 54z"/>
<path d="M5841 17024 c-39 -32 -41 -72 -8 -146 41 -92 51 -92 82 6 28 89 27
103 -13 149 -20 22 -25 22 -61 -9z"/>
<path d="M22324 16703 c-51 -84 -67 -105 -100 -135 -31 -28 -35 -37 -29 -63
16 -72 11 -82 -68 -164 -99 -102 -110 -145 -50 -206 59 -58 93 -58 177 0 43
29 77 45 97 45 61 0 189 86 189 127 0 28 -70 211 -127 330 -41 88 -65 106 -89
66z"/>
<path d="M5343 16677 c-36 -18 -43 -26 -43 -51 0 -24 14 -43 71 -98 39 -38 83
-75 99 -83 16 -8 32 -20 35 -26 10 -16 -33 -57 -74 -70 -20 -6 -40 -15 -44
-19 -15 -13 53 -79 93 -91 34 -10 43 -9 73 10 19 11 39 21 46 21 6 0 33 -16
60 -36 44 -31 50 -40 53 -76 3 -38 7 -44 52 -70 66 -39 76 -33 76 48 0 79 -23
174 -55 230 -22 38 -45 58 -185 161 -31 22 -69 57 -85 77 -85 106 -97 111
-172 73z"/>
<path d="M5961 16389 c5 -22 21 -63 34 -89 30 -60 31 -76 5 -92 -32 -20 -25
-57 20 -100 49 -46 71 -47 130 -8 91 59 92 61 87 89 -10 51 -53 150 -76 175
-30 32 -119 66 -170 66 l-39 0 9 -41z"/>
<path d="M4866 16391 c-10 -19 -45 -46 -98 -76 -100 -57 -94 -53 -81 -66 11
-11 75 -21 226 -36 l57 -5 0 34 c0 75 -46 178 -80 178 -5 0 -16 -13 -24 -29z"/>
<path d="M4873 16142 c-28 -10 -70 -31 -93 -46 -37 -25 -45 -26 -76 -16 -33
11 -60 10 -139 -7 -27 -6 -25 -7 25 -17 52 -10 56 -13 78 -59 17 -35 37 -57
77 -82 30 -19 58 -35 63 -35 16 0 59 55 92 117 22 42 41 65 60 73 16 7 36 20
44 29 15 16 15 19 -2 34 -28 26 -72 29 -129 9z"/>
<path d="M5304 15985 c9 -88 41 -187 68 -212 30 -27 63 -34 85 -18 15 11 16
16 4 41 -17 38 -152 254 -158 254 -3 0 -3 -29 1 -65z"/>
<path d="M6141 16004 c-27 -34 -24 -44 25 -71 28 -16 56 -23 97 -23 57 0 57 0
57 30 0 38 -39 80 -73 80 -14 0 -38 3 -54 6 -25 5 -34 1 -52 -22z"/>
<path d="M4449 15983 c-15 -15 -55 -46 -90 -68 -34 -22 -119 -94 -188 -160
-69 -66 -159 -150 -200 -187 -66 -60 -74 -70 -78 -111 -3 -25 0 -61 7 -81 13
-40 32 -45 78 -22 15 7 39 16 55 20 26 6 27 5 27 -39 0 -79 23 -58 79 74 48
110 109 213 125 208 6 -2 16 -29 22 -60 22 -109 33 -112 89 -24 37 58 40 67
40 139 0 71 3 80 34 125 37 52 47 101 34 171 l-8 43 -26 -28z"/>
<path d="M6530 15962 c0 -13 -8 -53 -17 -88 -22 -81 -11 -98 42 -69 57 30 59
88 5 148 -28 31 -29 31 -30 9z"/>
<path d="M22375 15949 c-53 -29 -118 -74 -135 -94 -20 -24 -15 -62 19 -148 17
-43 31 -86 31 -97 0 -28 -36 -34 -147 -22 -54 5 -107 6 -119 1 -22 -8 -22 -9
-7 -59 13 -45 13 -53 0 -74 -15 -22 -113 -63 -124 -52 -3 3 1 27 8 55 10 41
10 53 0 65 -17 20 -34 20 -73 0 -40 -20 -55 -7 -40 35 10 29 9 31 -24 47 -42
20 -51 32 -28 41 11 4 39 -5 75 -25 32 -18 67 -32 79 -32 32 0 36 28 7 58 -18
20 -26 42 -29 80 -8 87 -46 99 -51 16 -2 -37 -4 -40 -52 -56 l-50 -16 -1 -114
c-1 -150 -7 -176 -50 -194 -18 -8 -87 -23 -152 -33 -65 -11 -133 -26 -150 -33
-31 -13 -320 -273 -348 -312 -22 -32 -18 -49 37 -134 65 -103 74 -151 34 -192
-31 -33 -54 -33 -113 1 -43 25 -63 24 -185 -7 -169 -42 -237 -64 -237 -77 0
-7 9 -26 19 -43 16 -26 18 -41 12 -94 -11 -92 -6 -106 59 -157 43 -33 63 -58
78 -94 12 -27 35 -66 52 -87 35 -44 53 -129 48 -228 -3 -55 -5 -59 -29 -62
-32 -4 -60 30 -79 94 -11 36 -10 49 4 90 19 57 21 127 3 142 -6 6 -26 14 -42
18 -17 3 -39 15 -50 25 -11 9 -48 35 -81 56 -34 21 -103 64 -154 96 -51 32
-98 61 -104 63 -25 10 -75 -80 -87 -156 -12 -72 -28 -100 -55 -100 -18 0 -18
35 1 125 22 103 20 131 -21 235 -8 19 -30 -41 -50 -135 -8 -38 -28 -90 -44
-115 -53 -83 -72 -137 -73 -214 -2 -66 1 -78 31 -125 17 -29 32 -57 32 -64 0
-6 -12 -21 -26 -32 l-26 -21 17 -130 c10 -71 23 -132 29 -136 6 -4 28 -8 49
-8 46 0 114 -27 101 -39 -5 -5 -36 -19 -68 -30 -33 -12 -64 -25 -69 -30 -7 -7
6 -30 36 -67 26 -31 47 -63 47 -72 0 -9 -15 -29 -34 -46 -29 -28 -34 -39 -41
-101 -9 -88 -17 -103 -59 -110 -21 -4 -53 -25 -85 -56 l-51 -49 -76 0 c-78 0
-103 8 -141 43 -36 32 -29 47 20 47 70 0 214 30 230 48 28 31 58 126 67 215 9
77 8 93 -10 140 -24 63 -25 77 -3 122 16 34 16 35 -7 60 -23 24 -24 33 -22
118 1 51 3 112 4 137 1 25 -8 89 -21 143 l-24 99 23 61 c17 47 24 90 28 180
l4 117 -41 0 c-44 0 -64 21 -42 43 17 17 13 35 -20 83 -34 50 -60 55 -69 14
-4 -16 -27 -39 -64 -64 -31 -21 -62 -48 -66 -60 -5 -11 -24 -93 -41 -180 l-33
-160 -83 -95 c-46 -52 -83 -98 -83 -102 0 -5 10 -27 21 -49 13 -25 23 -66 26
-108 7 -107 9 -111 110 -206 l95 -90 -7 -66 c-4 -36 -8 -66 -10 -68 -2 -2 -12
5 -22 15 -10 10 -71 44 -136 76 -68 34 -125 69 -135 84 -95 137 -130 159 -311
197 -134 27 -148 35 -189 105 l-26 44 -23 -29 c-12 -16 -23 -37 -23 -47 0 -10
32 -54 72 -98 96 -106 109 -128 115 -200 l6 -61 -34 7 c-49 10 -78 31 -85 63
-12 57 -14 59 -35 33 -10 -13 -19 -31 -19 -41 0 -23 -19 -30 -89 -30 -48 0
-66 6 -111 35 -30 19 -58 35 -61 35 -4 0 -18 -10 -33 -21 l-27 -22 25 -26 26
-27 -41 -40 c-22 -21 -45 -49 -50 -61 -7 -19 -16 -23 -53 -23 -49 0 -70 18
-41 34 61 36 72 54 71 111 0 54 -1 55 -29 55 -74 0 -114 -21 -209 -107 -51
-47 -120 -105 -153 -130 -44 -32 -68 -59 -90 -101 -33 -62 -82 -102 -124 -102
-18 0 -40 14 -69 43 -23 23 -42 46 -42 49 0 3 20 18 44 32 57 33 88 72 80 100
-15 48 -52 81 -120 107 -135 52 -162 50 -132 -11 11 -21 26 -62 33 -91 14 -52
14 -54 -15 -105 -17 -28 -30 -58 -30 -67 0 -8 15 -26 34 -41 38 -28 61 -83 51
-118 -18 -66 -55 -125 -55 -88 0 5 -13 25 -30 43 -26 30 -29 39 -24 83 5 50
-6 82 -24 70 -5 -3 -28 -37 -50 -74 -28 -46 -71 -96 -132 -152 -56 -51 -90
-90 -90 -102 0 -11 12 -34 26 -51 28 -34 27 -59 -8 -115 -25 -41 -48 -38 -70
10 -12 24 -39 51 -86 82 -38 25 -76 48 -84 51 -22 9 -37 -15 -40 -66 l-3 -44
64 -33 c36 -18 66 -34 69 -36 2 -3 -6 -25 -17 -51 -17 -38 -25 -46 -43 -43
-13 2 -28 15 -36 31 -7 15 -30 36 -51 47 -49 25 -91 74 -91 108 -1 15 -7 45
-15 67 -13 37 -13 42 12 86 29 54 25 79 -12 79 -50 0 -123 49 -138 92 -18 50
73 34 351 -63 l92 -32 46 18 c65 25 147 109 173 180 36 96 26 128 -57 179 -23
14 -66 59 -96 99 -71 96 -100 122 -234 210 -86 57 -128 79 -180 91 -37 9 -93
28 -126 43 l-58 28 -49 -28 c-59 -33 -66 -33 -95 -6 -28 27 -23 41 35 102 55
57 52 67 -40 115 -35 19 -75 41 -89 48 -23 13 -82 16 -300 17 -42 0 -99 -9
-162 -27 -87 -26 -101 -33 -144 -78 -33 -35 -51 -47 -63 -42 -9 4 -44 9 -78
11 -58 3 -62 2 -88 -29 -15 -18 -32 -45 -37 -59 -5 -15 -41 -55 -79 -88 -62
-53 -90 -68 -122 -62 -22 4 -121 -97 -149 -152 -18 -36 -53 -81 -89 -114 -33
-31 -62 -66 -65 -80 -9 -33 11 -73 36 -73 16 0 19 5 14 30 -7 33 9 60 35 60 9
0 34 12 55 26 37 26 40 26 53 9 19 -28 16 -53 -14 -104 -32 -56 -102 -149
-133 -176 -12 -11 -40 -57 -61 -102 -34 -73 -39 -91 -39 -157 0 -92 -4 -103
-44 -120 -21 -9 -38 -27 -50 -55 -15 -31 -30 -46 -60 -60 -61 -27 -199 -162
-277 -272 -131 -183 -177 -336 -129 -428 17 -34 18 -41 5 -51 -36 -30 0 -110
117 -257 48 -61 51 -63 95 -63 64 0 102 22 177 101 64 66 96 83 112 57 4 -6
15 -56 25 -111 11 -55 30 -124 44 -154 30 -67 31 -75 5 -98 -20 -18 -21 -18
-46 6 -14 13 -39 54 -56 91 -18 38 -37 68 -43 68 -6 0 -43 -27 -81 -60 -85
-71 -94 -95 -94 -242 0 -136 -17 -194 -75 -254 -24 -26 -48 -43 -53 -40 -6 3
-8 31 -5 66 3 33 3 60 0 60 -9 0 -82 -123 -106 -180 -47 -110 -73 -151 -147
-232 -41 -46 -94 -111 -117 -145 -51 -76 -104 -103 -220 -113 -42 -4 -80 -10
-84 -14 -3 -3 -1 -29 5 -58 7 -28 11 -52 10 -54 -2 -1 -37 9 -78 22 -86 27
-108 29 -133 9 -18 -13 -14 -18 50 -78 37 -36 96 -88 131 -117 57 -49 64 -59
83 -124 30 -99 27 -152 -11 -242 l-18 -41 -116 -6 c-81 -4 -128 -2 -158 7 -26
7 -90 12 -164 11 -116 -2 -123 -3 -157 -30 -21 -15 -37 -35 -37 -44 0 -9 10
-44 22 -79 l23 -63 -32 -93 c-18 -51 -33 -108 -33 -126 0 -39 36 -166 56 -197
19 -29 78 -59 131 -66 33 -4 55 -16 94 -51 28 -25 56 -46 62 -46 5 0 29 11 53
25 32 19 63 27 121 31 107 8 156 27 196 77 58 72 77 112 77 157 0 56 38 121
87 151 21 12 63 45 94 73 31 28 67 58 80 68 l24 16 -19 36 c-18 35 -19 38 -3
71 25 52 53 54 142 9 75 -36 77 -37 110 -21 18 8 56 36 85 62 28 25 69 57 91
72 39 25 40 26 60 7 12 -10 57 -67 100 -126 88 -119 86 -117 288 -261 79 -56
149 -109 154 -118 8 -12 6 -27 -6 -52 -10 -19 -20 -49 -23 -66 -9 -41 -16 -44
-57 -25 -32 15 -41 15 -112 1 -43 -9 -80 -18 -82 -21 -10 -10 8 -24 72 -55
121 -60 143 -59 154 5 6 35 10 39 33 36 21 -2 42 11 98 64 l70 66 -31 54 c-26
46 -28 55 -15 60 9 3 37 -8 65 -24 55 -34 61 -31 61 33 0 40 -4 43 -229 196
-107 72 -166 119 -188 150 -18 24 -46 62 -62 84 -17 22 -33 48 -36 57 -7 18
43 97 62 98 6 0 42 -43 79 -96 72 -101 66 -96 317 -257 64 -42 95 -69 117
-104 17 -26 30 -52 30 -58 0 -27 104 -282 123 -303 12 -13 37 -32 55 -44 32
-20 33 -20 54 -2 40 36 48 72 31 147 -12 52 -13 74 -4 93 6 13 15 24 20 24 5
0 36 -18 69 -40 33 -22 64 -40 70 -40 5 0 14 21 18 48 l9 47 75 27 c41 15 81
27 88 27 7 1 -6 -35 -33 -89 l-45 -89 22 -64 21 -64 -23 -56 c-23 -55 -23 -57
-5 -96 33 -75 39 -77 157 -47 57 14 113 26 126 26 13 0 54 12 90 27 81 32 100
32 166 -7 l52 -29 61 28 c87 41 99 44 117 26 26 -26 19 -63 -30 -170 -42 -91
-47 -109 -53 -200 l-6 -100 -75 -42 c-41 -24 -80 -43 -86 -43 -6 0 -42 20 -80
45 -76 50 -108 55 -148 24 -26 -20 -36 -21 -174 -17 -170 6 -196 14 -348 102
-52 31 -105 56 -118 56 -25 0 -67 -41 -117 -115 -69 -102 -89 -110 -205 -74
-92 28 -188 78 -249 129 -49 41 -51 42 -106 37 -124 -13 -164 12 -198 125 -12
40 -33 98 -47 130 -26 59 -23 90 10 117 28 23 18 39 -41 66 -65 31 -115 33
-269 11 -54 -8 -130 -17 -169 -21 -38 -3 -126 -16 -195 -27 -116 -19 -131 -24
-207 -70 -69 -43 -92 -51 -155 -59 -152 -17 -288 -7 -288 22 0 4 -7 9 -15 13
-11 4 -22 -11 -41 -52 -21 -43 -57 -86 -152 -180 l-124 -123 -49 -119 c-27
-66 -49 -130 -49 -142 0 -17 -27 -43 -111 -108 -62 -46 -129 -105 -151 -130
-21 -25 -83 -119 -138 -209 -110 -179 -112 -186 -85 -296 30 -123 13 -297 -49
-498 -44 -145 -52 -188 -37 -216 7 -12 44 -43 83 -69 70 -46 74 -50 139 -172
43 -79 86 -143 116 -173 67 -68 256 -213 353 -271 l81 -50 75 13 c42 7 112 23
157 37 88 25 180 31 265 14 66 -12 118 3 202 60 34 23 85 50 114 60 46 16 59
17 131 4 44 -7 82 -13 85 -13 3 -1 35 -34 72 -73 l68 -73 52 4 c104 8 115 6
172 -32 63 -42 68 -60 42 -139 -8 -24 -21 -77 -30 -118 -8 -41 -24 -102 -35
-134 -12 -33 -21 -69 -21 -81 0 -27 36 -61 125 -118 107 -67 137 -110 171
-241 9 -34 31 -86 49 -117 31 -51 33 -58 23 -91 -10 -33 -7 -44 37 -137 34
-73 45 -109 41 -127 -4 -13 -35 -53 -70 -87 -35 -34 -66 -71 -70 -82 -7 -23
-66 -344 -66 -358 0 -5 26 -36 59 -70 64 -68 96 -122 106 -182 4 -22 22 -64
41 -92 l34 -53 -2 -122 c-2 -90 2 -140 15 -185 9 -35 71 -172 139 -305 l122
-243 0 -80 c1 -79 2 -83 46 -147 46 -69 72 -88 117 -88 31 0 125 24 218 55 39
13 128 31 198 39 185 24 255 55 370 165 42 40 78 91 129 181 39 69 96 163 126
210 45 70 56 95 62 148 9 74 18 85 82 118 26 13 54 36 62 52 15 29 66 224 66
253 0 9 -16 36 -35 59 -19 23 -35 49 -35 57 0 29 143 163 270 253 70 49 132
96 137 103 22 27 83 346 83 429 0 41 -31 118 -75 187 -25 40 -27 49 -19 95 5
28 7 108 6 178 -4 145 -2 151 80 250 93 111 378 397 536 535 84 74 164 151
178 172 31 47 109 238 155 379 29 89 32 104 19 113 -30 20 -235 -2 -524 -56
-43 -8 -90 -15 -104 -15 -42 0 -94 65 -142 179 -23 57 -58 121 -77 144 -32 37
-34 44 -28 88 l7 46 -56 34 c-30 19 -78 47 -106 62 -47 25 -55 36 -87 105 -20
42 -55 135 -78 207 -24 71 -69 186 -100 255 -32 69 -77 176 -101 239 -24 63
-52 124 -62 135 -29 32 -64 95 -60 107 2 6 25 -12 51 -40 27 -28 54 -51 61
-51 9 0 15 19 18 60 8 114 32 97 72 -50 27 -99 156 -340 240 -449 77 -100 78
-101 77 -210 l-1 -99 43 -58 c24 -33 79 -92 122 -133 76 -72 81 -79 147 -225
37 -83 72 -158 77 -166 12 -22 103 -24 185 -4 107 26 291 112 493 232 28 17
105 56 170 87 65 31 129 66 143 79 14 13 51 38 83 56 32 18 61 39 64 46 2 7
-3 26 -11 43 -28 53 -22 61 38 61 l53 0 26 58 c28 62 57 162 51 174 -10 16
-132 93 -189 118 -62 28 -62 28 -71 81 -8 45 -14 56 -42 72 l-33 19 -62 -65
c-60 -62 -105 -87 -160 -87 -10 0 -31 -7 -48 -15 -56 -29 -84 7 -80 103 3 65
-10 82 -60 82 -35 0 -41 4 -83 63 -91 127 -147 228 -144 255 5 44 52 42 113
-5 91 -69 417 -283 442 -289 17 -5 36 2 65 22 l41 29 76 -82 c74 -78 79 -82
136 -91 120 -20 288 -23 409 -7 65 8 129 12 144 9 40 -10 149 -85 212 -146 30
-29 82 -91 115 -137 l60 -84 91 6 c51 4 98 8 105 9 11 2 13 -15 11 -83 -2 -55
4 -138 18 -225 31 -204 26 -191 80 -230 51 -37 65 -63 120 -239 30 -93 118
-315 132 -332 19 -23 60 -14 114 27 68 51 82 79 94 187 5 48 17 115 25 148 8
33 15 85 15 116 0 60 26 109 58 109 9 0 106 92 216 204 220 223 389 370 438
380 17 3 81 6 143 6 l113 0 11 -32 c7 -18 16 -64 22 -103 11 -82 28 -104 125
-160 58 -34 64 -41 64 -70 0 -17 -7 -54 -15 -81 -18 -59 -19 -98 -4 -127 30
-56 46 -50 150 48 119 113 132 112 103 -9 l-17 -74 26 -71 c32 -86 33 -96 7
-146 -27 -53 -25 -81 5 -101 29 -19 31 -43 9 -86 -26 -49 -13 -111 41 -202 25
-43 65 -117 89 -164 24 -48 65 -115 90 -149 50 -66 74 -123 53 -123 -13 0
-157 112 -247 192 -45 40 -71 54 -150 78 -94 30 -140 37 -140 22 0 -5 14 -21
30 -37 35 -33 50 -79 50 -152 0 -52 0 -52 38 -62 20 -6 46 -11 58 -11 50 0 68
-66 39 -137 -19 -44 -12 -68 29 -111 29 -31 135 -120 163 -136 7 -4 -10 28
-37 71 -53 83 -75 148 -48 138 9 -4 59 -59 111 -124 53 -65 163 -190 245 -277
140 -150 154 -161 236 -202 129 -63 312 -111 471 -122 145 -11 198 -18 376
-56 149 -32 269 -36 316 -11 59 32 128 16 227 -52 25 -17 52 -31 61 -31 27 0
154 58 260 118 l100 57 119 -3 c133 -3 162 4 195 49 29 39 15 44 -90 30 -45
-6 -109 -11 -141 -11 -44 0 -78 -8 -131 -31 -40 -16 -83 -30 -97 -30 -14 0
-47 0 -75 1 -27 0 -97 -10 -155 -24 -177 -43 -279 -34 -653 60 -307 77 -345
84 -492 95 -127 9 -131 10 -183 46 -95 65 -149 146 -120 180 19 24 96 10 178
-32 38 -21 77 -34 85 -31 28 10 20 22 -73 109 l-62 59 -65 -7 -65 -7 -123 117
c-136 132 -157 158 -157 198 0 34 25 36 88 7 43 -19 43 -19 37 0 -4 11 -7 72
-9 134 -2 130 -6 138 -86 184 -87 49 -142 98 -196 171 -30 40 -54 83 -54 94 0
11 20 42 45 68 25 26 45 52 45 56 -1 4 -19 17 -42 28 -56 27 -87 69 -70 95 7
11 12 31 12 44 0 24 1 25 85 25 99 -1 95 2 238 -138 91 -89 102 -114 76 -163
-16 -30 -6 -32 46 -9 130 57 300 181 344 249 16 26 44 55 60 65 17 10 31 25
31 34 0 19 -37 80 -143 231 -70 99 -88 119 -163 170 -46 31 -84 63 -84 71 0
23 65 102 155 190 l86 84 45 -6 c51 -5 84 -30 84 -63 0 -12 -24 -52 -55 -89
-56 -69 -67 -98 -39 -109 29 -11 95 -6 124 9 26 13 30 21 30 56 0 22 -12 70
-26 106 -14 36 -22 68 -18 72 9 8 125 34 224 50 79 13 291 106 358 156 122 92
210 200 241 295 6 19 44 77 84 128 61 78 75 102 86 155 27 129 28 123 -19 147
-45 23 -58 45 -84 148 -9 35 -31 85 -47 113 -17 27 -33 66 -36 87 -4 36 -3 38
59 74 35 20 82 50 106 67 37 27 42 36 42 69 0 49 -30 78 -87 85 -34 4 -48 0
-74 -19 -40 -30 -64 -30 -87 -3 -35 43 -44 49 -73 49 -37 0 -92 27 -87 42 3 7
25 19 51 27 26 9 64 30 84 46 69 56 208 135 236 135 38 0 34 -17 -18 -84 -72
-94 -59 -112 49 -67 71 30 179 53 202 44 9 -3 12 -28 11 -76 -2 -68 0 -75 34
-122 56 -76 69 -109 84 -203 16 -100 32 -152 47 -152 16 0 105 68 112 86 3 9
6 39 6 67 1 37 9 68 29 107 l29 55 -48 95 c-26 52 -53 112 -60 133 -11 35 -10
41 10 62 13 14 54 37 92 52 38 14 73 34 77 42 5 9 11 49 15 89 11 124 43 163
136 161 30 0 71 -6 90 -13 34 -13 36 -12 112 46 136 103 189 159 258 273 36
59 84 132 106 164 54 73 60 88 129 329 55 194 57 205 47 258 -8 38 -8 62 -1
82 6 16 8 53 4 91 -7 69 -29 98 -100 137 -31 17 -34 16 -98 -8 l-65 -26 -7 34
c-8 47 -33 104 -45 104 -6 0 -20 -16 -32 -36 -24 -40 -28 -38 -53 29 l-18 48
60 62 c32 34 83 91 113 127 29 36 85 97 124 136 39 39 116 119 171 178 79 86
113 114 161 137 34 16 68 29 76 29 9 0 45 -14 80 -30 91 -43 178 -50 236 -20
37 19 46 21 71 10 16 -6 32 -18 35 -26 3 -8 32 -27 63 -42 48 -22 71 -26 133
-25 41 1 98 8 125 15 l50 14 2 71 c2 85 19 121 125 273 65 93 80 108 133 136
33 17 76 40 96 52 46 28 53 20 67 -76 10 -69 48 -152 70 -152 4 0 48 53 97
117 127 165 215 256 246 251 36 -5 36 -41 0 -95 -28 -42 -31 -54 -31 -125 0
-48 -5 -90 -14 -106 -17 -34 -91 -103 -218 -207 -71 -57 -128 -116 -207 -214
-60 -75 -141 -172 -181 -215 -40 -43 -78 -94 -86 -112 -8 -19 -14 -68 -14
-116 0 -115 34 -347 59 -404 23 -50 28 -128 10 -140 -22 -13 -40 -73 -29 -95
25 -45 -37 -124 -104 -134 l-44 -7 -7 -61 c-6 -56 -11 -67 -61 -123 -50 -57
-81 -111 -70 -121 24 -24 109 77 151 177 16 40 45 84 75 115 26 28 64 77 85
110 66 107 355 455 423 511 23 19 27 31 32 104 l5 83 54 26 c81 39 86 53 49
129 l-31 63 31 45 31 44 -27 14 c-40 21 -92 73 -92 91 0 9 11 18 28 21 23 5
31 16 55 79 37 97 56 121 104 124 69 6 82 3 113 -19 l31 -22 82 81 c59 57 91
81 108 81 38 0 103 -42 119 -77 8 -18 18 -33 21 -33 3 0 26 28 50 63 39 52 75
83 238 197 106 74 222 158 258 187 37 29 75 53 85 53 10 0 38 -20 62 -44 l43
-45 17 56 c12 37 16 70 12 97 -9 61 -61 143 -132 213 -35 33 -64 65 -64 71 0
12 34 42 47 42 6 0 30 -16 53 -35 23 -19 48 -35 55 -35 14 0 120 128 137 166
9 20 6 28 -21 60 -18 20 -30 41 -28 47 4 14 77 66 93 67 14 0 29 -35 50 -112
22 -87 24 -89 92 -71 52 14 60 13 89 -2 18 -10 62 -55 98 -100 71 -88 112
-115 173 -115 54 0 62 13 62 100 0 85 4 93 68 133 49 32 102 100 102 132 0 16
-9 26 -32 35 -58 21 -92 39 -141 75 -52 37 -111 54 -136 38 -11 -7 -17 -28
-19 -64 -6 -103 -42 -88 -42 17 0 98 -8 123 -49 149 -20 13 -70 53 -111 90
-87 78 -386 305 -512 388 -81 54 -92 59 -209 81 -68 14 -141 31 -161 40 -21 9
-51 16 -67 16 -34 0 -109 -26 -130 -46 -19 -18 -8 -54 33 -103 l35 -42 -14
-46 c-16 -53 -30 -65 -65 -58 -43 10 -74 39 -107 101 -17 32 -47 77 -65 98
l-34 39 -45 -26 c-58 -34 -100 -34 -200 -1 -72 25 -82 26 -124 14 -54 -15 -90
-54 -105 -113 -18 -69 -31 -97 -58 -117 -33 -26 -42 -18 -31 27 17 73 11 107
-22 139 -49 46 -51 57 -29 114 24 61 26 123 4 140 -8 8 -37 13 -66 12 -28 0
-63 5 -77 12 -14 8 -83 28 -153 46 l-128 32 -80 -32 c-45 -17 -85 -28 -91 -25
-5 4 -21 28 -34 55 -18 36 -46 65 -105 110 -60 46 -80 67 -80 85 0 29 -81 103
-157 142 -64 34 -72 31 -131 -58 -81 -118 -92 -130 -119 -127 -14 2 -29 10
-33 18 -4 8 -15 31 -24 50 -9 19 -25 50 -35 68 l-19 34 24 35 c29 43 30 55 7
75 -32 28 -65 40 -142 53 l-76 14 -78 -41 c-43 -22 -91 -54 -108 -69 -26 -25
-30 -34 -25 -62 31 -169 16 -229 -64 -267 l-50 -23 -54 51 c-54 52 -90 64
-113 41 -16 -16 -83 -29 -116 -22 -19 4 -41 23 -68 59 -38 49 -65 71 -77 59
-3 -2 -9 -55 -14 -117 -11 -140 -17 -158 -59 -158 -60 0 -125 93 -159 227 -7
30 -22 51 -51 73 -43 35 -72 81 -64 102 3 7 22 22 43 33 33 18 37 25 40 63 3
44 -21 147 -41 171 -19 23 -57 32 -173 40 -95 7 -121 13 -158 35 -30 18 -59
26 -90 26 -41 0 -46 -2 -46 -23 0 -13 12 -47 26 -75 36 -72 30 -82 -53 -82
-77 0 -283 43 -298 62 -5 7 -32 30 -58 50 -41 31 -59 38 -115 43 -37 4 -91 13
-121 21 -30 9 -67 16 -82 16 -52 2 -88 66 -63 113 21 41 18 50 -33 83 -34 23
-51 28 -64 22 -22 -12 -39 -62 -39 -116 0 -23 -4 -54 -9 -67 -8 -22 -14 -24
-43 -18 -32 6 -33 9 -38 61 l-5 55 -27 -40 c-15 -22 -29 -52 -32 -67 -3 -16
-8 -39 -11 -53 -4 -17 -28 -39 -78 -71 -39 -25 -118 -80 -174 -120 -56 -41
-104 -74 -107 -74 -13 0 -4 37 18 76 39 68 200 276 256 329 29 28 70 74 92
103 22 29 49 57 61 62 12 5 58 36 102 68 69 50 83 66 102 113 20 48 22 66 17
154 -8 160 -6 154 -97 247 -45 47 -93 88 -107 91 -151 37 -182 34 -246 -25
-56 -52 -79 -47 -68 15 16 87 13 98 -31 114 -43 15 -95 59 -95 80 0 8 6 24 14
36 23 38 28 74 10 91 -12 13 -39 16 -127 16 -95 0 -118 -3 -152 -21z"/>
<path d="M19484 15711 c-91 -36 -190 -91 -244 -136 -43 -36 -98 -64 -185 -95
-36 -12 -422 -265 -544 -356 -2 -2 -6 -55 -10 -118 -6 -110 -7 -116 -36 -146
-16 -18 -49 -43 -72 -57 -24 -14 -43 -31 -43 -38 0 -8 16 -43 35 -80 18 -36
32 -71 29 -78 -2 -7 -25 -25 -50 -41 -52 -33 -69 -64 -79 -148 -9 -71 -29
-104 -93 -154 -28 -21 -51 -44 -52 -50 0 -15 24 -34 96 -77 81 -49 93 -64 118
-154 18 -66 26 -80 54 -96 52 -31 138 -34 200 -7 38 16 54 29 59 47 5 22 -8
39 -106 132 l-111 106 0 60 c0 109 59 266 139 369 47 62 60 87 80 163 15 54
89 153 160 211 31 26 189 149 351 274 162 125 319 249 348 275 58 52 71 85 72
176 0 42 -2 47 -22 47 -13 -1 -55 -13 -94 -29z"/>
<path d="M5007 15638 c-32 -20 -50 -41 -58 -65 -10 -31 -8 -40 20 -93 36 -66
37 -77 15 -101 -20 -22 -12 -49 14 -49 36 0 43 -22 24 -80 -26 -81 -36 -82
-125 -14 -69 53 -80 65 -99 117 -12 32 -34 70 -51 85 -16 15 -51 49 -76 75
-72 76 -74 76 -132 15 -28 -29 -54 -63 -59 -75 -5 -13 -18 -23 -29 -23 -32 0
-51 -11 -51 -30 0 -18 70 -89 110 -110 27 -15 22 -19 -60 -54 -61 -26 -100
-56 -100 -77 0 -14 140 -79 170 -79 17 0 39 14 65 41 55 56 72 64 94 45 9 -8
57 -22 106 -31 48 -8 91 -18 94 -21 9 -9 -20 -22 -68 -29 -53 -8 -72 -17 -103
-48 -13 -13 -47 -36 -76 -53 -28 -16 -52 -35 -52 -42 0 -42 199 -72 252 -38
13 9 57 54 96 100 88 104 105 111 147 64 29 -34 32 -35 86 -30 36 3 59 0 63
-7 15 -24 33 -9 56 47 13 31 34 75 47 98 12 22 23 51 23 64 0 43 -42 182 -57
187 -9 3 -32 -12 -59 -38 -27 -27 -47 -39 -53 -34 -30 32 -91 131 -91 148 0
11 5 36 11 56 12 42 0 84 -29 100 -14 7 -29 3 -65 -21z"/>
<path d="M5691 15646 c-10 -26 -3 -69 24 -139 10 -26 15 -53 12 -62 -8 -19
-75 -20 -122 -1 -37 16 -50 35 -71 107 -17 56 -38 71 -59 43 -21 -27 -18 -94
5 -131 17 -29 25 -33 64 -33 54 0 67 -16 55 -69 -13 -55 -11 -91 5 -91 7 0 34
12 60 26 43 24 48 25 70 11 13 -9 28 -29 34 -46 9 -25 6 -39 -19 -91 -16 -34
-29 -68 -29 -75 0 -19 45 -52 81 -60 42 -9 71 13 124 94 86 135 102 232 60
362 -27 83 -47 119 -70 119 -6 0 -24 -13 -40 -30 -41 -42 -60 -38 -96 20 -27
44 -54 70 -74 70 -3 0 -10 -11 -14 -24z"/>
<path d="M25533 15428 c-5 -7 -17 -39 -27 -70 -9 -32 -22 -58 -27 -58 -6 0
-32 18 -57 41 -52 45 -111 79 -140 79 -39 0 -117 -107 -109 -149 27 -131 78
-291 102 -319 27 -32 38 -25 61 39 25 69 31 73 103 58 l60 -11 42 36 c24 20
47 36 52 36 6 0 25 -18 44 -40 19 -22 40 -40 47 -40 14 0 100 86 113 115 26
52 -59 188 -152 246 -73 45 -99 54 -112 37z"/>
<path d="M4241 15361 c-52 -60 -58 -80 -41 -125 8 -23 12 -24 40 -15 50 18 70
53 70 125 0 34 -4 65 -9 68 -4 3 -31 -21 -60 -53z"/>
<path d="M25938 15301 c-15 -5 -5 -27 66 -146 78 -132 86 -142 137 -168 42
-22 62 -27 91 -23 51 8 88 26 88 43 0 8 9 31 20 53 25 50 25 58 -2 70 -73 30
-240 90 -277 100 -28 7 -57 24 -75 45 -21 22 -37 30 -48 26z"/>
<path d="M3935 14908 c-16 -5 -61 -11 -100 -14 -107 -6 -124 -39 -45 -89 52
-33 51 -52 -5 -140 -28 -42 -43 -76 -39 -87 3 -9 6 -39 6 -65 1 -40 -5 -57
-34 -98 -60 -84 -71 -112 -63 -164 9 -64 23 -82 110 -142 80 -55 95 -73 95
-112 0 -14 8 -35 18 -47 l18 -23 36 44 c19 24 43 56 53 72 13 20 25 27 44 25
40 -3 48 7 56 69 4 32 13 72 19 88 16 37 131 140 246 220 132 93 150 111 150
154 0 54 -29 92 -119 155 -44 31 -83 61 -86 66 -3 5 -27 -5 -53 -21 -27 -16
-61 -31 -76 -32 -25 -2 -31 3 -45 42 -9 25 -30 60 -47 78 -26 27 -39 33 -70
32 -22 0 -52 -5 -69 -11z"/>
<path d="M25482 14877 c-27 -28 -29 -88 -7 -161 22 -73 20 -81 -22 -92 l-37
-9 27 -18 c38 -24 171 -60 231 -61 97 -2 83 65 -34 160 -65 53 -88 87 -110
162 -7 23 -16 42 -20 42 -4 0 -16 -10 -28 -23z"/>
<path d="M6500 14790 c-19 -5 -62 -7 -95 -4 -53 6 -70 2 -137 -26 -42 -18 -87
-43 -99 -56 -22 -23 -22 -24 -4 -64 16 -36 17 -49 6 -144 -12 -99 -12 -109 8
-166 12 -33 21 -68 21 -78 0 -32 -67 -158 -100 -189 -40 -37 -42 -73 -9 -131
l23 -39 -23 -59 -22 -59 38 -35 c22 -19 68 -58 104 -86 l64 -50 -2 -108 c-4
-157 -11 -176 -88 -237 -36 -28 -65 -53 -65 -55 0 -3 9 -22 20 -44 36 -70 18
-90 -47 -50 -49 29 -57 53 -39 107 21 63 21 68 -14 105 -38 39 -38 56 0 70 58
20 83 113 55 197 -20 60 -59 111 -85 111 -11 0 -38 -21 -62 -46 -24 -25 -58
-52 -75 -59 -42 -18 -83 -59 -83 -83 0 -25 64 -87 104 -102 17 -7 39 -16 48
-21 10 -5 25 -9 33 -9 33 0 12 -27 -40 -53 -64 -31 -70 -42 -57 -91 6 -20 7
-38 4 -40 -7 -4 -101 6 -276 29 -83 11 -105 18 -140 44 -80 61 -141 100 -167
106 -23 6 -31 -1 -78 -66 -29 -39 -55 -78 -58 -85 -2 -7 12 -36 31 -66 20 -29
36 -64 36 -78 -1 -34 -51 -125 -70 -125 -8 0 -37 40 -65 92 -58 106 -74 126
-132 160 l-42 24 -43 -22 c-40 -20 -51 -21 -188 -15 -127 6 -147 10 -165 28
-20 20 -20 20 0 31 32 20 85 74 85 89 -1 26 -56 93 -92 111 -31 15 -45 16
-103 7 l-66 -11 -67 44 c-133 87 -280 157 -331 157 -10 0 -31 -18 -45 -39 -52
-75 -73 -65 -111 50 -15 43 -30 81 -35 84 -4 3 -26 -28 -48 -68 -64 -116 -62
-116 -126 15 -30 62 -64 124 -75 138 l-20 25 -23 -22 c-21 -21 -21 -26 -9 -55
25 -63 25 -76 -4 -102 -34 -31 -53 -32 -105 -6 -54 28 -75 26 -90 -9 -6 -16
-23 -40 -37 -53 -13 -12 -45 -59 -70 -103 -70 -126 -64 -121 -115 -93 -40 22
-43 27 -49 76 -9 72 -31 102 -72 102 -18 0 -41 -6 -50 -12 -15 -12 -15 -18 -2
-68 19 -69 19 -94 1 -109 -23 -19 -81 12 -159 85 -109 103 -140 119 -284 145
-123 22 -127 24 -146 56 -36 62 -75 68 -165 22 l-61 -30 -56 46 c-53 43 -57
44 -78 30 -38 -27 -85 -18 -194 37 l-103 52 -34 -33 c-19 -18 -39 -31 -44 -27
-5 3 -19 32 -31 66 -24 66 -47 85 -90 75 -36 -8 -67 -41 -79 -85 l-9 -35 -12
28 c-6 16 -11 41 -11 56 0 15 -8 35 -17 44 -23 19 -112 67 -127 67 -7 0 -54
-27 -106 -60 -90 -57 -130 -72 -130 -50 0 24 -34 6 -91 -46 -34 -31 -84 -66
-112 -79 -66 -29 -96 -62 -142 -155 -59 -119 -67 -127 -148 -151 -103 -30
-122 -43 -141 -89 -9 -22 -16 -42 -16 -44 0 -2 43 -35 96 -72 53 -38 103 -77
110 -89 8 -11 33 -48 56 -83 35 -54 44 -63 64 -58 37 10 65 -7 81 -50 25 -63
27 -108 8 -128 -23 -23 -46 -14 -124 45 l-63 49 -32 -28 c-164 -138 -155 -133
-258 -156 -16 -4 -28 -11 -28 -16 0 -5 24 -27 53 -48 43 -32 54 -47 64 -85 10
-35 20 -50 42 -62 42 -21 162 -45 228 -45 50 0 57 3 86 35 17 19 34 35 38 35
4 0 10 -12 14 -27 3 -16 18 -45 32 -65 38 -56 25 -73 -74 -98 -37 -9 -44 -15
-54 -50 -18 -58 -30 -65 -73 -39 l-37 22 -45 -48 c-37 -40 -44 -53 -39 -76 5
-22 0 -32 -36 -61 -41 -34 -41 -35 -40 -101 1 -105 27 -159 120 -249 84 -83
109 -93 161 -63 14 8 33 14 43 15 18 0 18 -7 12 -93 -7 -90 -6 -95 18 -122 30
-36 79 -38 133 -6 l36 21 25 -20 c35 -27 46 -26 121 15 35 20 67 33 70 30 3
-3 -4 -19 -16 -35 -24 -32 -28 -61 -12 -91 9 -15 3 -29 -30 -73 -47 -63 -53
-67 -255 -206 -82 -57 -177 -125 -210 -153 -62 -51 -80 -61 -128 -71 -21 -5
-27 -12 -27 -31 0 -28 -30 -45 -80 -45 -18 0 -42 -11 -62 -28 -18 -16 -48 -34
-66 -41 -17 -8 -45 -29 -62 -47 -25 -29 -36 -34 -75 -34 -50 0 -62 -12 -51
-55 9 -34 35 -44 49 -19 19 33 58 66 72 60 43 -16 139 44 150 94 9 40 27 48
99 43 l61 -5 54 56 c53 56 54 56 101 50 59 -8 94 9 118 56 21 44 44 48 85 17
61 -46 149 -83 169 -70 6 3 -21 36 -58 74 -37 38 -66 71 -63 74 3 3 33 8 66
11 l60 7 121 116 c76 74 126 130 136 154 9 21 44 75 78 120 45 60 77 116 115
207 49 119 56 129 128 198 55 53 82 72 98 70 18 -2 22 -10 22 -38 0 -32 -3
-35 -32 -38 -51 -5 -102 -89 -114 -186 -4 -35 -16 -70 -29 -88 -12 -16 -28
-50 -36 -76 -24 -82 -48 -110 -119 -142 -76 -34 -83 -55 -33 -94 l32 -25 -22
-39 c-42 -76 -22 -94 44 -38 21 18 58 43 81 55 23 11 47 30 53 41 11 20 16
125 11 203 -4 53 16 78 115 143 47 31 106 74 131 95 44 39 46 40 71 23 25 -16
26 -16 45 7 15 19 18 33 12 76 -6 53 5 93 27 93 6 0 36 -24 67 -53 33 -31 89
-70 134 -92 74 -36 79 -38 116 -25 29 9 47 10 70 2 43 -15 203 -111 270 -161
38 -29 71 -44 112 -52 85 -17 98 -36 109 -152 5 -53 12 -108 16 -122 4 -15 55
-69 132 -138 206 -184 235 -207 277 -218 22 -6 57 -15 78 -20 35 -9 42 -17 72
-82 18 -40 60 -113 93 -163 33 -50 63 -106 67 -123 4 -18 1 -62 -6 -97 -15
-76 -12 -84 52 -132 115 -85 124 -96 177 -219 64 -151 73 -187 73 -292 0 -75
-6 -105 -45 -229 -67 -207 -65 -223 28 -404 40 -79 83 -161 95 -183 11 -22 48
-97 81 -166 33 -70 78 -146 100 -172 35 -40 53 -50 134 -77 54 -18 104 -41
118 -55 43 -44 117 -188 129 -250 18 -97 33 -123 82 -145 54 -24 66 -38 74
-84 4 -27 1 -42 -12 -55 -27 -31 -15 -53 41 -75 64 -26 80 -40 116 -95 19 -31
28 -58 28 -86 0 -48 31 -85 71 -85 13 0 35 -7 49 -15 14 -8 35 -19 48 -24 17
-8 22 -19 22 -45 0 -19 4 -38 10 -41 10 -6 51 12 62 28 11 18 -11 58 -64 116
-28 31 -65 85 -82 121 -16 36 -68 112 -114 170 -126 159 -173 231 -179 278 -5
37 -3 41 27 57 39 20 54 10 82 -52 10 -23 23 -45 28 -48 6 -3 10 -19 10 -35 0
-47 16 -75 75 -131 32 -30 84 -90 116 -134 38 -53 90 -106 152 -157 52 -42
112 -98 133 -123 22 -26 60 -71 87 -101 26 -30 47 -64 47 -76 0 -12 -12 -41
-26 -66 l-26 -44 73 -72 c94 -92 131 -113 323 -186 86 -32 196 -80 244 -107
48 -26 102 -53 120 -60 32 -12 34 -11 85 38 70 67 90 71 130 27 23 -25 44 -37
75 -42 33 -5 56 -19 102 -61 37 -34 96 -73 155 -102 82 -41 98 -46 115 -35 50
31 70 14 129 -108 53 -110 109 -173 232 -263 55 -39 117 -85 139 -101 28 -21
54 -31 92 -34 49 -4 58 -1 101 32 48 37 84 45 104 25 7 -7 33 -17 60 -24 40
-10 49 -17 57 -41 4 -16 17 -48 27 -72 40 -91 33 -107 -154 -329 -60 -70 -116
-141 -125 -158 -18 -35 -18 -101 -1 -196 l12 -66 -43 -60 c-29 -42 -44 -74
-47 -105 -6 -48 -11 -39 128 -203 77 -90 111 -158 153 -305 48 -167 74 -217
159 -304 66 -67 87 -80 246 -161 96 -48 185 -98 198 -111 23 -23 24 -27 17
-136 -4 -71 -2 -136 5 -175 10 -51 9 -73 -3 -120 -8 -32 -18 -85 -21 -118 -4
-33 -13 -91 -20 -130 -7 -38 -16 -100 -20 -137 l-7 -68 -43 0 c-68 0 -67 -22
4 -70 33 -23 33 -23 26 -84 -4 -41 -14 -71 -31 -93 -27 -35 -33 -109 -14 -173
17 -59 -26 -217 -100 -368 -50 -103 -59 -135 -40 -147 14 -9 12 -43 -2 -47
-10 -4 -9 -18 5 -60 23 -73 22 -87 -9 -120 -26 -27 -27 -30 -31 -184 -4 -164
-13 -203 -53 -224 -37 -20 -42 -45 -20 -102 25 -67 25 -94 0 -108 -21 -11 -28
-54 -10 -65 21 -13 9 -46 -35 -95 -50 -57 -57 -89 -28 -143 l17 -32 7 42 c9
50 35 93 56 93 23 0 11 -80 -17 -119 -20 -30 -21 -36 -11 -95 16 -89 14 -120
-9 -159 -18 -30 -19 -39 -9 -91 9 -43 9 -66 0 -95 -11 -38 -10 -42 40 -123 67
-109 152 -230 207 -296 24 -28 48 -68 53 -87 8 -26 16 -36 37 -40 39 -8 171
-45 218 -61 22 -8 56 -30 74 -49 19 -19 37 -35 42 -35 4 0 17 17 28 37 11 21
42 65 69 98 45 57 50 60 87 57 115 -8 129 -7 129 8 0 11 -16 17 -55 23 -138
20 -160 27 -213 75 -77 68 -110 112 -101 137 11 29 5 155 -8 179 -6 12 -26 39
-45 62 -18 23 -33 46 -33 52 0 6 27 31 60 57 82 63 91 78 84 141 l-6 52 56 41
c80 60 91 79 76 140 -9 39 -24 61 -71 109 -63 63 -62 61 -43 134 3 11 19 20
42 23 20 3 56 14 78 25 l42 19 -2 69 c-1 80 13 104 73 123 56 18 81 37 81 63
0 25 -43 68 -99 99 -18 9 -31 22 -29 29 5 13 19 17 127 39 86 17 97 30 105
122 4 41 13 83 20 92 9 13 43 21 132 31 65 8 141 20 167 27 49 12 49 12 99
110 l51 99 -22 26 c-11 15 -28 40 -37 56 -23 41 -7 52 103 74 94 20 160 48
201 85 13 12 51 66 84 119 33 54 80 120 105 148 25 28 57 80 73 118 21 50 38
75 68 97 23 17 43 37 47 46 3 9 7 72 9 140 3 119 14 169 37 169 5 0 43 32 84
70 69 65 77 70 119 70 27 0 75 12 123 32 58 24 92 31 135 31 54 -1 60 1 88 34
38 43 50 72 50 124 0 41 7 51 78 111 26 21 32 34 32 65 0 21 7 69 15 108 8 38
15 118 15 176 0 58 3 147 7 198 l6 92 39 16 c30 12 46 28 70 70 17 29 42 60
57 68 14 8 59 46 100 85 l74 70 -6 103 c-3 56 -8 110 -12 120 -4 10 -57 43
-117 73 -75 38 -123 69 -154 101 -78 82 -81 83 -239 83 -139 0 -140 0 -185 30
-51 34 -62 36 -80 15 -23 -28 -37 -16 -44 34 -6 45 -10 52 -54 79 -103 66 -93
68 -191 -36 -47 -51 -91 -93 -98 -92 -23 0 -22 18 8 80 16 35 28 69 25 77 -8
21 -46 15 -101 -16 -63 -36 -134 -56 -147 -43 -15 15 15 62 66 105 25 21 53
52 62 69 16 30 16 31 -25 72 -30 30 -48 62 -66 116 -14 41 -32 84 -40 94 -21
28 -40 7 -90 -100 -24 -50 -48 -95 -54 -98 -6 -4 -33 6 -59 22 -73 45 -87 47
-109 17 -10 -14 -26 -36 -35 -48 l-17 -22 -26 26 c-14 14 -38 59 -52 100 -22
62 -27 92 -27 180 -1 126 6 114 -143 234 -116 92 -151 131 -137 150 37 50 46
69 51 105 l6 41 -74 -36 c-40 -19 -85 -35 -99 -35 -14 0 -51 18 -84 40 -59 40
-89 49 -101 29 -20 -31 -125 -35 -125 -5 0 8 -8 23 -17 34 -16 18 -34 21 -169
27 l-151 7 -9 -32 c-5 -17 -13 -32 -19 -32 -5 -1 -22 22 -36 51 l-26 52 -43
-36 c-64 -53 -92 -65 -158 -65 -76 0 -101 -19 -147 -110 -54 -106 -108 -139
-173 -102 -21 11 -64 28 -96 37 l-60 18 -21 -27 c-11 -14 -30 -26 -40 -26 -34
1 -229 104 -247 130 -16 24 -16 33 4 166 12 78 18 149 15 157 -3 8 -38 27 -79
42 -40 15 -109 41 -152 58 -91 34 -153 85 -181 148 -15 33 -16 44 -7 57 28 38
101 200 112 250 14 63 6 78 -48 88 -45 9 -205 -12 -242 -31 -20 -10 -31 -26
-39 -60 -20 -78 -52 -154 -78 -185 -23 -28 -30 -30 -92 -30 -144 0 -253 38
-310 107 -50 60 -64 125 -65 308 l-1 160 32 43 31 44 -19 41 c-10 23 -19 65
-19 93 0 60 24 88 109 127 29 14 66 38 82 53 28 27 33 28 122 25 69 -1 111 -8
168 -29 70 -24 79 -25 119 -13 24 7 52 24 64 38 54 64 51 63 118 57 48 -5 68
-11 83 -29 31 -35 59 -45 122 -45 94 0 127 -10 173 -49 39 -34 43 -42 52 -101
16 -118 107 -250 173 -250 32 0 46 147 24 252 -6 29 -29 86 -51 127 -40 72
-40 74 -34 149 9 92 25 134 68 170 18 15 66 57 108 94 41 37 110 86 153 109
43 23 94 57 114 74 l37 32 -22 52 -23 52 40 87 c21 48 63 132 93 186 l53 100
94 38 c51 21 100 43 108 50 9 7 39 18 67 23 62 13 67 33 11 52 -55 19 -61 27
-40 60 52 81 135 167 205 212 96 62 218 126 226 118 4 -3 -10 -25 -30 -48 -30
-36 -36 -50 -36 -89 0 -55 18 -85 46 -76 10 3 44 26 74 52 33 27 128 82 238
136 103 51 182 96 182 104 0 22 -50 142 -65 154 -9 8 -27 -6 -75 -56 l-62 -67
-88 42 c-72 35 -92 41 -109 32 -11 -6 -24 -11 -30 -11 -19 0 -12 73 9 108 17
28 23 32 36 21 24 -20 32 0 35 81 l2 75 -117 11 c-120 11 -149 22 -127 47 13
17 103 43 178 53 l53 7 46 -52 c49 -55 89 -81 124 -81 33 0 23 21 -37 82 -31
32 -54 60 -51 64 4 3 32 -2 64 -11 107 -31 124 -27 211 55 132 123 182 146
167 77 -3 -18 -33 -100 -64 -182 -75 -192 -77 -201 -53 -213 10 -6 70 -20 133
-31 62 -12 118 -25 123 -30 5 -5 -12 -16 -43 -26 -36 -12 -50 -22 -48 -33 4
-20 97 -84 117 -80 9 2 31 26 49 53 17 28 37 52 42 53 6 2 24 -8 41 -22 33
-28 50 -32 80 -16 46 25 65 130 34 190 -19 36 -95 94 -199 152 -44 23 -88 55
-98 69 l-20 26 41 58 c47 67 49 83 20 160 l-21 56 21 50 c13 29 19 58 15 73
-9 36 -122 126 -158 126 -11 0 -64 -25 -119 -56 -54 -31 -100 -54 -102 -52 -2
2 11 13 28 24 119 76 138 91 144 113 9 36 -6 52 -89 93 -73 37 -76 40 -147
147 -72 108 -73 110 -60 145 12 32 10 40 -28 123 -23 48 -56 124 -74 168 -30
72 -71 151 -110 213 -7 12 -19 22 -25 22 -6 0 -32 -44 -58 -97 -74 -152 -144
-243 -189 -243 -20 0 -114 86 -132 119 -9 18 -13 61 -12 136 1 69 -3 118 -10
131 -8 13 -45 35 -93 54 -84 34 -130 63 -130 83 0 19 -39 88 -76 133 -25 31
-45 44 -78 53 -63 16 -66 15 -66 -19 0 -36 -15 -38 -70 -10 -49 25 -136 27
-169 3 -23 -16 -24 -19 -18 -118 4 -85 2 -110 -13 -142 -17 -39 -17 -41 6 -96
31 -73 25 -101 -28 -128 -67 -34 -63 -49 40 -167 84 -97 106 -146 100 -226 -8
-99 -87 -230 -186 -308 -20 -16 -39 -32 -41 -34 -10 -10 2 -199 15 -236 17
-50 18 -154 1 -188 -28 -55 -90 -34 -147 50 -21 31 -54 69 -74 84 -41 31 -44
42 -16 71 l20 22 -20 25 c-26 33 -26 74 0 90 27 17 25 40 -6 91 -39 62 -65 87
-90 87 -34 0 -79 59 -214 286 l-122 206 -54 24 c-107 47 -223 49 -254 3 -8
-12 -24 -52 -35 -88 -15 -47 -26 -66 -37 -66 -25 0 -33 -12 -58 -83 -31 -85
-55 -115 -81 -102 -44 24 -118 228 -126 350 -6 94 19 257 51 325 15 31 80 112
175 217 121 133 151 172 151 195 0 40 68 104 152 141 51 23 70 38 83 64 26 51
65 99 76 93 16 -10 10 -60 -16 -129 -35 -92 -33 -104 13 -111 70 -12 87 -21
107 -58 11 -20 25 -37 32 -37 18 0 52 53 73 114 35 104 49 115 89 72 28 -30
130 -76 182 -83 49 -7 51 11 9 76 -43 68 -119 138 -212 196 -46 29 -84 59 -86
68 -2 11 9 24 28 35 66 36 79 51 85 100 11 80 24 118 46 138 36 32 40 58 28
183 -10 103 -9 123 6 166 20 58 29 145 18 161 -4 6 -61 45 -125 87 -65 42
-118 81 -118 86 0 11 155 69 228 84 62 13 81 5 95 -39 24 -74 107 -110 107
-47 0 36 29 92 56 110 22 14 26 14 50 -2 30 -20 321 -455 382 -572 29 -56 42
-94 42 -121 0 -67 21 -83 136 -97 111 -15 152 -28 160 -50 8 -19 -65 -114 -88
-115 -3 0 -30 25 -60 56 -58 61 -86 79 -139 89 -77 14 -119 -71 -79 -162 11
-25 20 -50 20 -55 0 -7 -47 -8 -134 -3 -134 7 -134 7 -149 -17 -8 -12 -18 -39
-22 -58 -4 -19 -23 -70 -42 -112 -38 -83 -39 -114 -1 -102 13 4 65 31 117 60
141 79 141 79 217 -1 34 -37 64 -77 66 -88 2 -12 19 -29 43 -41 30 -16 48 -37
78 -91 54 -99 61 -105 121 -105 30 0 61 -6 73 -15 12 -8 48 -22 81 -30 60 -16
192 -35 192 -28 0 2 -31 36 -69 76 -79 81 -171 194 -171 208 0 28 28 9 216
-152 104 -89 140 -113 153 -105 11 7 1 47 -23 94 -24 47 -20 59 27 80 55 24
72 45 58 70 -5 10 -59 65 -119 120 -120 111 -131 130 -177 286 -26 90 -31 141
-17 150 12 7 173 -90 194 -117 10 -12 18 -34 18 -49 0 -44 16 -73 74 -134 52
-55 57 -58 70 -41 7 10 17 48 20 85 14 137 23 165 71 210 25 23 45 50 45 60 0
27 -34 58 -127 119 -120 77 -422 335 -454 387 -49 80 -33 142 48 188 56 32 66
51 34 68 -33 17 -84 11 -126 -15 -49 -30 -95 -33 -95 -7 0 22 22 43 68 66 29
15 32 19 20 33 -26 32 -91 53 -163 53 -52 0 -78 5 -102 20 -49 30 -44 56 17
83 60 27 62 40 16 122 -41 75 -70 85 -85 28 -6 -21 -11 -43 -11 -49 0 -14 -39
-64 -49 -64 -17 0 -117 83 -130 107 -9 18 -11 43 -7 84 l7 57 -72 82 -72 81
18 38 c16 37 16 40 -3 82 -34 78 -47 84 -182 84 -65 0 -122 -3 -126 -7 -11
-12 23 -44 110 -103 53 -36 91 -55 111 -55 60 0 64 -15 18 -62 -31 -32 -45
-56 -53 -93 -16 -75 -30 -105 -50 -105 -17 0 -29 12 -79 79 l-17 24 -28 -57
c-27 -54 -49 -76 -63 -62 -3 3 2 41 12 84 9 44 15 94 13 113 -7 46 -77 282
-87 292 -15 16 -219 -155 -265 -222 l-28 -39 46 -69 c25 -37 46 -74 46 -82 0
-8 -10 -25 -22 -38 -22 -23 -22 -24 -4 -72 14 -39 16 -64 11 -119 -9 -90 -14
-98 -51 -79 -46 24 -59 45 -99 157 -61 174 -61 174 -41 204 16 26 16 28 -4 55
-11 16 -20 35 -20 43 0 7 24 43 53 80 64 79 137 190 137 206 0 17 -40 15 -146
-7 -149 -31 -152 -33 -222 -174 -76 -152 -89 -214 -74 -346 14 -117 26 -136
100 -156 107 -30 134 -40 135 -50 1 -5 -38 -20 -86 -32 -49 -12 -91 -24 -94
-27 -3 -2 17 -18 43 -35 27 -16 108 -68 179 -114 l130 -84 -3 -84 -4 -84 32
-23 c26 -20 29 -26 19 -39 -7 -8 -30 -22 -51 -30 -46 -18 -58 -38 -58 -94 0
-54 -75 -211 -99 -207 -22 4 -78 82 -90 124 -8 29 -5 44 15 89 33 72 31 139
-7 167 -23 18 -101 49 -107 44 -1 -2 -6 -47 -11 -101 -6 -54 -15 -103 -20
-108 -8 -8 -20 -8 -38 -1 l-28 10 3 108 c4 128 1 135 -94 166 -86 29 -99 48
-73 112 31 79 26 101 -36 176 -71 85 -115 172 -115 227 0 35 8 50 50 100 28
33 50 67 50 76 0 20 -20 38 -82 74 -27 15 -48 31 -48 35 0 11 52 28 109 36 47
6 49 5 76 -30 45 -60 70 -44 86 53 15 96 54 193 86 216 38 27 73 65 73 79 -1
36 -55 53 -120 36z"/>
<path d="M5952 14778 c-6 -7 -21 -42 -35 -78 -13 -37 -31 -66 -40 -68 -8 -2
-27 14 -43 35 -15 21 -31 42 -35 47 -4 5 -31 -15 -59 -44 -58 -60 -58 -61 1
-152 36 -56 37 -62 26 -91 -17 -41 -41 -56 -64 -40 -62 44 -118 71 -124 61
-12 -19 6 -43 137 -178 68 -71 124 -135 124 -142 0 -8 7 -38 15 -66 20 -66 39
-67 102 -9 50 46 86 113 104 194 16 70 1 102 -72 159 -34 26 -59 53 -59 63 0
10 12 45 27 77 22 49 27 74 27 148 1 88 -8 112 -32 84z"/>
<path d="M5311 14684 c-61 -16 -71 -21 -71 -35 0 -16 92 -109 124 -126 28 -14
30 -14 48 8 30 39 33 69 12 107 -30 55 -49 63 -113 46z"/>
<path d="M4495 14485 c-55 -25 -118 -58 -140 -73 -39 -27 -40 -29 -43 -94 l-3
-67 -48 -16 c-60 -20 -87 -46 -73 -72 25 -45 142 -133 177 -133 12 0 41 20 65
45 24 25 50 45 57 45 35 0 -2 -85 -54 -123 -22 -18 -27 -18 -64 -3 -52 21 -76
20 -89 -4 -20 -38 26 -144 73 -169 28 -15 46 -13 161 18 140 37 316 18 324
-36 5 -32 -29 -46 -92 -38 -61 8 -387 -12 -400 -25 -12 -12 2 -63 32 -109 38
-59 71 -71 188 -70 114 2 118 -1 128 -89 12 -97 6 -92 109 -92 76 0 109 5 187
31 121 39 124 41 192 106 65 61 73 62 144 11 42 -30 170 -78 208 -78 12 0 32
7 44 16 l22 15 -50 61 c-27 33 -50 63 -50 68 0 18 32 31 100 39 40 5 77 14 83
20 14 14 -1 34 -131 178 -61 67 -115 130 -121 142 -6 11 -24 75 -40 143 -17
68 -37 143 -45 167 -9 24 -16 69 -16 101 l0 57 -59 27 c-32 14 -72 26 -89 26
-35 0 -42 -16 -42 -106 0 -52 4 -67 29 -101 36 -50 61 -98 61 -117 0 -23 -99
-77 -135 -74 l-30 3 -5 127 c-3 69 -8 130 -12 133 -17 17 -58 -9 -107 -70 -78
-96 -112 -82 -127 51 -4 32 -11 70 -16 83 -8 23 -9 23 -36 5 -15 -9 -48 -35
-73 -56 -75 -63 -87 -53 -91 74 l-3 68 -100 -45z"/>
<path d="M28661 14064 c-50 -42 -91 -81 -91 -88 0 -7 14 -25 30 -41 l30 -29
47 17 c38 14 52 15 85 5 36 -11 40 -10 67 16 15 15 45 31 65 37 25 7 40 18 46
35 19 49 13 62 -32 74 -24 6 -66 19 -93 30 -28 11 -53 20 -56 20 -4 0 -47 -34
-98 -76z"/>
<path d="M17915 13615 c-33 -21 -39 -29 -37 -52 5 -35 38 -90 62 -103 43 -23
121 6 135 49 9 28 -26 84 -69 110 -41 26 -42 26 -91 -4z"/>
<path d="M7745 13308 c-16 -6 -40 -20 -52 -31 -16 -14 -23 -16 -23 -7 0 10 -3
11 -11 3 -5 -5 -13 -35 -16 -66 -5 -51 -4 -56 21 -72 15 -10 48 -19 72 -19 38
-1 50 4 70 27 29 34 32 87 6 136 -20 40 -26 43 -67 29z"/>
<path d="M12095 12949 c-55 -51 -104 -127 -112 -172 -6 -41 8 -52 76 -63 23
-4 44 -10 46 -14 3 -4 -23 -18 -58 -30 -117 -42 -115 -61 9 -75 100 -11 111
-23 75 -74 -12 -16 -21 -36 -21 -45 0 -19 38 -36 82 -36 17 0 40 -8 51 -17 15
-15 42 -19 144 -22 l124 -3 57 38 c185 122 292 229 292 291 0 23 -17 50 -74
114 -40 47 -90 93 -109 104 l-35 19 -99 -46 c-54 -25 -115 -51 -137 -58 -50
-16 -118 -9 -184 20 -43 19 -53 27 -48 43 6 23 -9 67 -24 67 -6 0 -30 -18 -55
-41z"/>
<path d="M7603 12390 c-24 -10 -29 -35 -13 -60 9 -13 14 -11 35 13 41 47 31
68 -22 47z"/>
<path d="M7130 12246 c-4 -13 -23 -35 -41 -49 -32 -25 -32 -26 -16 -51 27 -41
58 -34 126 30 34 31 61 62 61 69 0 15 -31 25 -83 25 -30 0 -39 -5 -47 -24z"/>
<path d="M7454 12172 c-35 -24 -58 -102 -35 -117 5 -3 22 5 36 18 25 21 26 26
19 65 -6 26 -13 39 -20 34z"/>
<path d="M13592 11545 c-18 -8 -46 -24 -62 -35 -17 -12 -44 -20 -68 -20 -21 0
-54 -5 -71 -11 l-33 -12 43 -43 43 -44 -49 -50 -49 -49 36 -16 c27 -11 35 -19
32 -33 -5 -15 0 -17 35 -14 23 2 41 0 41 -5 0 -13 -34 -43 -48 -43 -17 0 -15
-27 5 -60 11 -20 27 -30 53 -34 21 -3 43 -13 50 -21 7 -8 21 -15 31 -15 23 0
23 -10 4 -74 -8 -27 -13 -51 -11 -54 3 -2 36 -5 73 -6 86 -1 90 -14 28 -91
-47 -58 -65 -98 -65 -146 0 -15 -9 -38 -21 -53 -20 -25 -20 -28 -5 -51 9 -14
23 -25 30 -25 7 0 19 -6 26 -14 14 -17 10 -21 -98 -96 -97 -68 -95 -85 8 -84
41 1 122 11 180 22 58 11 139 23 180 26 87 6 136 21 144 43 4 8 1 33 -4 55
-10 36 -9 43 20 86 36 54 36 87 0 189 -17 50 -33 70 -109 140 -101 94 -251
269 -251 294 0 3 27 23 60 43 56 35 80 60 80 85 0 16 -57 48 -127 72 -71 23
-76 35 -38 85 14 18 25 35 25 38 0 8 -57 36 -72 36 -7 -1 -28 -7 -46 -15z"/>
<path d="M13288 10956 c-171 -91 -173 -94 -118 -166 74 -97 68 -119 -45 -165
l-40 -17 59 -54 c33 -30 65 -54 71 -54 25 0 132 61 179 102 l49 44 7 94 c5 52
13 108 19 123 20 52 14 101 -17 130 -15 15 -32 27 -38 26 -5 0 -62 -28 -126
-63z"/>
<path d="M25636 10865 c-41 -95 -76 -209 -77 -248 -1 -23 5 -60 14 -83 12 -32
16 -86 18 -240 2 -184 0 -202 -19 -240 -11 -22 -28 -70 -38 -105 l-17 -65 24
-33 c20 -27 21 -33 9 -41 -8 -5 -32 -10 -53 -10 -70 0 -62 -54 12 -80 24 -8
46 -22 50 -30 22 -42 -53 -172 -121 -209 -49 -27 -44 -27 -135 6 -8 3 -13 -4
-13 -20 0 -43 18 -77 51 -95 62 -34 68 -43 80 -125 16 -106 4 -145 -54 -182
-23 -15 -56 -43 -72 -62 -18 -21 -54 -44 -85 -57 -49 -19 -61 -31 -106 -96
-53 -79 -105 -123 -139 -118 -17 3 -20 11 -23 56 -2 28 -8 52 -13 52 -6 0 -34
-24 -63 -54 -36 -37 -60 -72 -75 -113 -23 -63 -47 -83 -96 -83 -69 0 -114
-118 -85 -222 8 -26 8 -44 1 -57 -9 -15 -7 -20 9 -24 11 -3 21 0 21 6 1 7 2
18 3 26 1 17 26 28 26 12 0 -6 11 -11 24 -11 17 0 37 15 66 49 47 57 100 81
243 110 96 20 190 72 207 115 4 12 11 65 15 117 4 52 12 102 17 112 9 17 11
16 48 -4 29 -17 49 -21 83 -17 62 7 99 37 150 121 32 54 60 85 112 124 115 86
118 99 41 173 -63 60 -85 102 -66 125 7 8 66 51 131 95 106 72 299 228 419
339 42 39 38 37 -55 -23 -172 -110 -244 -142 -259 -117 -3 5 -35 12 -71 16
-63 6 -68 9 -96 48 -54 74 -59 90 -51 154 6 49 10 57 26 55 10 -2 29 -1 42 2
40 10 31 49 -21 92 -24 21 -47 44 -50 52 -9 24 15 52 84 97 95 62 97 64 78
128 -23 75 -32 117 -73 346 -20 112 -42 220 -49 240 l-12 36 -17 -40z"/>
<path d="M14693 9478 c-22 -28 -23 -57 -4 -107 12 -28 18 -58 15 -66 -4 -9
-26 -21 -50 -27 -24 -7 -44 -16 -44 -21 0 -4 13 -25 30 -45 24 -31 29 -44 24
-72 -11 -69 34 -120 93 -105 22 5 23 10 23 106 0 76 -4 106 -17 125 -14 22
-15 33 -3 95 16 85 7 123 -31 127 -14 2 -30 -3 -36 -10z"/>
<path d="M14217 9181 c-15 -22 -41 -47 -59 -55 -18 -9 -46 -26 -62 -39 -25
-21 -27 -26 -17 -46 l13 -23 32 38 c29 33 37 37 76 36 34 -2 50 3 69 22 15 13
35 26 45 28 30 5 30 24 -1 52 -40 37 -65 33 -96 -13z"/>
<path d="M23903 7753 c-42 -38 -103 -131 -103 -157 0 -30 35 -109 55 -126 21
-18 30 -7 65 80 18 44 45 98 61 120 35 49 36 53 3 79 -33 26 -56 27 -81 4z"/>
<path d="M7211 7550 c-126 -70 -152 -110 -83 -129 53 -15 83 -14 76 3 -9 22
16 24 119 10 115 -16 148 -30 236 -101 36 -29 84 -58 106 -64 67 -19 195 2
195 32 0 6 -20 35 -45 64 -72 84 -233 159 -365 169 -47 4 -87 14 -108 26 -45
27 -67 25 -131 -10z"/>
<path d="M8117 7246 c-9 -7 -38 -16 -65 -19 -63 -7 -162 -45 -162 -62 0 -24
51 -55 90 -55 20 0 63 -9 95 -20 80 -27 98 -26 111 8 10 26 15 29 65 30 67 1
127 11 134 22 5 9 -48 54 -105 89 -41 24 -134 29 -163 7z"/>
<path d="M23863 7100 c-9 -22 -22 -40 -30 -40 -8 0 -27 -7 -43 -15 -22 -11
-30 -23 -30 -43 0 -36 33 -150 67 -234 32 -78 46 -83 106 -43 36 25 37 27 37
91 0 45 6 77 20 104 22 43 26 113 10 171 -9 32 -15 37 -48 43 -67 11 -73 8
-89 -34z"/>
<path d="M24260 6382 c-38 -36 -60 -66 -60 -80 0 -40 -74 -28 -127 21 -21 18
-23 19 -29 3 -4 -10 0 -29 7 -43 16 -30 187 -213 199 -213 22 0 73 58 101 115
32 66 33 73 10 160 -5 22 -12 52 -16 68 -3 15 -10 27 -16 27 -5 0 -37 -26 -69
-58z"/>
<path d="M20540 6338 c-35 -73 -36 -83 -13 -140 43 -110 81 -139 130 -100 24
20 63 81 63 100 0 27 -126 202 -146 202 -3 0 -18 -28 -34 -62z"/>
<path d="M23523 6128 c-42 -46 -158 -192 -189 -237 -23 -35 -24 -41 -13 -91
11 -51 10 -55 -11 -72 -14 -12 -39 -18 -69 -18 -25 0 -89 -7 -141 -16 -107
-17 -98 -21 -150 67 -48 80 -100 91 -100 20 0 -89 69 -208 199 -345 81 -84
101 -95 161 -85 58 9 91 1 144 -35 44 -29 105 -34 146 -12 19 11 27 27 37 78
13 69 71 245 97 296 12 23 24 32 41 32 33 0 32 22 -6 90 -36 67 -51 124 -38
156 7 20 15 24 53 24 37 0 48 5 70 31 26 31 35 69 15 69 -5 0 -52 18 -104 40
-52 22 -98 40 -103 40 -4 0 -22 -15 -39 -32z"/>
<path d="M24220 5760 c-14 -4 -45 -18 -70 -31 -40 -21 -57 -23 -145 -22 -115
2 -163 -14 -215 -73 -97 -111 -112 -229 -43 -332 31 -44 98 -102 120 -102 7 0
42 26 76 59 35 32 70 60 78 63 9 3 -6 26 -50 74 -96 106 -96 106 -28 170 38
35 71 57 100 64 23 6 65 22 92 36 90 45 151 112 85 94z"/>
<path d="M24861 5571 c-7 -5 -31 -6 -52 -4 -48 7 -49 0 -14 -102 31 -92 72
-162 105 -174 14 -6 57 -13 95 -17 87 -8 105 -17 194 -98 39 -36 82 -68 96
-72 16 -4 33 -20 45 -44 10 -20 31 -52 46 -70 50 -58 189 -150 229 -150 9 0
48 18 88 39 67 37 128 56 170 53 10 0 34 -14 55 -30 64 -51 234 -141 287 -153
76 -17 102 -1 134 79 13 34 22 65 19 68 -4 3 -28 -2 -55 -12 l-50 -18 -79 49
c-102 63 -187 128 -206 157 -8 13 -21 41 -29 62 -16 46 -103 144 -165 187 -44
30 -82 40 -217 58 -50 7 -98 22 -139 42 -88 44 -183 79 -217 79 -19 0 -45 13
-73 36 -51 43 -58 34 -34 -46 13 -43 13 -52 2 -56 -23 -9 -67 21 -130 85 -57
60 -77 69 -105 52z"/>
<path d="M25600 4741 c-25 -49 -42 -164 -46 -321 -2 -90 -7 -172 -10 -182 -3
-9 -23 -32 -46 -49 -46 -37 -59 -34 -93 19 -17 28 -24 31 -51 27 -23 -4 -50 4
-102 31 -135 67 -173 128 -138 223 20 57 21 150 2 177 -12 16 -27 19 -98 19
-81 1 -171 15 -234 37 -35 13 -75 1 -120 -35 -22 -17 -24 -25 -19 -57 10 -58
-38 -154 -102 -208 l-51 -42 -103 65 c-56 36 -106 65 -111 65 -13 0 -65 -77
-119 -176 -60 -111 -70 -121 -106 -105 -23 11 -29 10 -40 -5 -13 -18 -33 -71
-55 -144 -11 -39 -20 -49 -67 -74 -59 -32 -294 -95 -353 -96 -31 0 -43 -7 -83
-52 -100 -115 -226 -327 -249 -421 -6 -25 6 -48 79 -162 87 -135 105 -174 105
-232 0 -18 17 -65 39 -107 46 -87 45 -99 -14 -198 -41 -69 -43 -89 -14 -130
31 -43 75 -58 174 -58 l86 0 57 54 57 54 169 4 c152 3 170 5 180 22 45 76 51
81 101 87 28 4 93 20 146 37 95 31 313 62 432 62 67 0 80 -13 206 -202 123
-185 133 -185 210 8 40 100 47 112 61 98 7 -7 7 -27 0 -64 -12 -63 -10 -68 84
-170 54 -59 68 -82 101 -172 21 -56 45 -113 52 -124 10 -16 40 -28 118 -48 57
-14 111 -26 119 -26 8 0 30 16 49 35 55 55 108 45 136 -25 9 -25 10 -24 76 45
l67 70 89 3 c103 5 94 -8 114 152 15 123 42 192 135 345 27 44 61 116 76 160
26 77 26 86 21 236 -7 178 -14 204 -77 264 -49 47 -82 108 -100 185 -7 30 -18
65 -24 76 -6 12 -65 68 -131 124 -238 202 -238 202 -235 354 1 56 2 106 1 113
0 7 -33 37 -71 68 -87 69 -94 80 -121 185 -20 79 -26 89 -80 143 -31 31 -60
57 -63 57 -3 0 -10 -9 -16 -19z"/>
<path d="M18020 4628 c-10 -13 -55 -68 -98 -123 -44 -55 -134 -157 -201 -228
l-122 -127 2 -118 c2 -110 0 -119 -24 -154 -14 -22 -30 -65 -36 -103 -10 -56
-9 -74 8 -132 59 -210 56 -187 30 -222 -28 -39 -19 -51 45 -58 51 -6 102 19
165 78 57 55 118 198 152 361 34 156 58 239 115 398 38 104 38 106 36 245 -1
77 -6 154 -10 170 -11 38 -36 43 -62 13z"/>
<path d="M28100 2611 c0 -23 57 -165 67 -169 29 -9 75 -46 82 -65 5 -13 12
-49 16 -81 7 -54 5 -60 -29 -115 -47 -77 -47 -97 2 -110 20 -6 42 -11 48 -11
5 0 18 -6 28 -13 17 -13 17 -16 3 -38 -8 -13 -19 -54 -22 -92 -7 -60 -6 -67 9
-61 16 6 99 109 164 205 18 27 44 51 61 57 24 8 32 20 45 65 9 30 23 58 32 61
15 6 15 8 -2 27 -36 40 -52 43 -95 15 -21 -14 -43 -26 -48 -26 -5 0 -20 15
-32 33 -43 63 -82 97 -110 97 -36 0 -44 15 -25 45 15 24 15 25 -27 53 -23 16
-65 55 -93 86 -54 59 -74 69 -74 37z"/>
<path d="M26055 2043 c31 -47 31 -58 0 -79 -19 -12 -37 -14 -77 -10 -29 4 -70
8 -91 8 -33 2 -38 6 -45 32 -6 23 -16 33 -40 40 -42 12 -69 2 -51 -20 7 -8 25
-22 41 -30 19 -10 28 -22 28 -39 0 -49 76 -233 117 -284 26 -32 52 -22 120 41
36 35 59 67 73 105 25 68 25 88 0 121 l-21 25 26 27 c37 38 32 57 -16 70 -23
6 -52 16 -66 21 l-24 9 26 -37z"/>
<path d="M28055 1974 c-8 -9 -18 -27 -21 -42 -13 -58 -37 -128 -55 -158 -10
-17 -69 -72 -131 -122 -62 -49 -144 -119 -181 -154 -78 -74 -78 -70 -4 -167
43 -57 47 -66 33 -77 -24 -17 -20 -44 7 -44 34 0 105 49 190 129 l74 71 6 70
c3 38 9 75 12 80 3 6 30 10 59 10 29 0 60 6 69 13 18 13 104 194 131 274 16
48 16 54 1 83 -22 42 -41 47 -71 20 l-24 -23 -22 20 c-33 29 -55 34 -73 17z"/>
</g>
</svg>
