<?xml version="1.0" standalone="no"?>
<!DOCTYPE svg PUBLIC "-//W3C//DTD SVG 20010904//EN"
 "http://www.w3.org/TR/2001/REC-SVG-20010904/DTD/svg10.dtd">
<svg version="1.0" xmlns="http://www.w3.org/2000/svg"
 width="3763.000000pt" height="1092.000000pt" viewBox="0 0 3763.000000 1092.000000"
 preserveAspectRatio="xMidYMid meet">

<g transform="translate(0.000000,1092.000000) scale(0.100000,-0.100000)"
fill="#fff" stroke="none">
<path d="M14896 8870 l-2248 -2050 -301 2 -302 3 -3 658 -2 657 -550 0 -550 0
0 -1820 0 -1820 550 0 550 0 2 698 3 697 300 3 300 2 820 -700 820 -700 840 1
840 0 -25 20 c-14 12 -366 298 -782 636 l-757 616 68 68 c131 129 213 301 234
490 25 224 -57 460 -219 630 l-55 57 128 114 c184 164 3495 3090 3516 3107 16
13 17 -45 17 -1043 l0 -1056 -880 0 -880 0 0 -425 0 -425 2015 0 2015 0 0 425
0 425 -885 0 -885 0 0 1390 0 1390 -723 0 -723 0 -2248 -2050z m-764 -2259
c53 -60 73 -116 73 -206 0 -67 -5 -88 -27 -131 -47 -90 -171 -177 -210 -147
-97 74 -278 228 -276 235 2 5 82 78 178 163 l174 154 29 -17 c16 -9 43 -33 59
-51z"/>
<path d="M0 4070 l0 -4070 18800 0 18800 0 0 290 0 290 -18255 0 -18255 0 -1
283 c0 155 -6 1648 -13 3317 -7 1669 -10 3039 -6 3043 4 4 49 6 100 5 l93 -3
685 -1363 686 -1362 460 2 461 3 685 1362 685 1363 93 0 92 0 -1 -257 c0 -142
-6 -753 -13 -1358 -6 -605 -10 -1103 -8 -1107 2 -5 246 -8 543 -8 l539 0 0
1820 0 1820 -997 0 -998 0 -539 -1175 c-297 -646 -542 -1175 -546 -1175 -3 0
-247 528 -541 1173 l-536 1172 -1007 3 -1006 2 0 -4070z"/>
<path d="M20950 6320 l0 -1820 566 0 566 0 -6 373 c-3 204 -8 658 -11 1007 -3
349 -8 794 -11 988 l-6 353 63 -3 64 -3 958 -1358 958 -1357 962 2 962 3 3
1818 2 1817 -567 0 -566 0 6 -557 c4 -307 10 -917 14 -1355 l6 -798 -59 1 -59
0 -950 1355 -949 1354 -973 0 -973 0 0 -1820z"/>
<path d="M26660 7686 l0 -454 148 4 c258 8 2403 36 2407 32 2 -2 -585 -433
-1305 -958 l-1310 -954 0 -428 0 -428 2250 0 2250 0 0 455 0 455 -107 0 c-89
0 -1766 -22 -2450 -32 -143 -3 -180 -1 -170 9 7 7 604 442 1327 966 l1315 955
3 416 2 416 -2180 0 -2180 0 0 -454z"/>
<path d="M31690 6320 l0 -1820 580 0 580 0 0 1820 0 1820 -580 0 -580 0 0
-1820z"/>
<path d="M33580 6320 l0 -1820 2025 0 2025 0 0 435 0 435 -1480 0 -1480 0 0
295 0 295 1395 0 1395 0 0 400 0 400 -1395 0 -1395 0 0 265 0 265 1470 0 1470
0 0 425 0 425 -2015 0 -2015 0 0 -1820z"/>
<path d="M8020 7144 c-25 -2 -106 -8 -180 -15 -649 -53 -938 -276 -1014 -780
-28 -183 -39 -507 -27 -764 27 -569 107 -769 376 -941 179 -114 415 -170 820
-195 264 -16 1117 -6 1322 15 352 37 538 97 698 227 201 163 282 358 301 727
l7 122 -490 0 -491 0 -6 -43 c-17 -111 -96 -215 -202 -264 -136 -62 -471 -89
-789 -63 -498 41 -595 152 -582 665 11 458 91 544 541 586 144 13 495 7 616
-11 106 -17 217 -54 277 -95 78 -52 121 -125 147 -247 l6 -28 491 0 491 0 -7
98 c-9 147 -33 309 -56 392 -81 294 -312 476 -702 555 -248 50 -370 57 -957
60 -300 1 -565 1 -590 -1z"/>
<path d="M16330 5630 l0 -1130 2025 0 2025 0 0 435 0 435 -1477 2 -1478 3 0
290 0 290 1393 3 1392 2 0 400 0 400 -1940 0 -1940 0 0 -1130z"/>
<path d="M2400 3676 c-166 -47 -290 -181 -334 -361 -31 -124 -39 -269 -39
-705 0 -457 8 -585 45 -723 33 -125 132 -253 236 -306 131 -67 319 -67 460 -1
145 68 229 211 256 438 l7 52 -125 0 c-141 0 -127 9 -141 -90 -19 -140 -102
-220 -228 -220 -84 0 -141 29 -180 92 -67 109 -81 262 -74 854 5 486 11 543
61 643 45 88 143 132 248 110 95 -20 178 -131 178 -238 0 -14 3 -36 6 -48 6
-22 10 -23 130 -23 l124 0 -6 58 c-26 252 -146 417 -339 467 -71 18 -221 19
-285 1z"/>
<path d="M15030 3674 c-153 -41 -255 -169 -282 -351 -24 -162 17 -290 159
-501 l75 -112 -70 -74 c-131 -138 -211 -270 -248 -407 -22 -85 -23 -253 -1
-336 71 -269 318 -413 596 -348 93 22 174 70 258 151 l73 70 71 -108 72 -108
123 0 c68 0 124 3 124 8 0 4 -58 99 -130 210 l-129 203 29 52 c77 138 160 433
160 570 l0 37 -104 0 -103 0 -7 -62 c-13 -122 -86 -378 -107 -378 -9 0 -319
469 -319 482 0 6 35 47 78 93 146 156 212 309 212 496 0 171 -77 321 -198 383
-84 43 -232 57 -332 30z m210 -224 c84 -43 120 -168 86 -300 -20 -77 -61 -148
-131 -227 l-52 -57 -36 49 c-63 87 -116 188 -133 254 -31 125 8 238 101 289
33 19 121 14 165 -8z m44 -1210 c97 -148 176 -276 176 -284 0 -24 -133 -151
-185 -176 -33 -16 -73 -26 -118 -28 -57 -4 -75 0 -122 22 -89 44 -145 134
-159 256 -9 81 8 165 53 255 38 75 151 225 170 225 5 0 88 -121 185 -270z"/>
<path d="M17085 3680 c-289 -52 -434 -298 -395 -674 18 -178 59 -265 156 -335
29 -21 133 -71 231 -111 201 -83 238 -103 281 -155 47 -58 57 -109 57 -295 0
-185 -10 -224 -75 -287 -44 -43 -90 -58 -175 -57 -83 0 -137 24 -183 79 -35
44 -49 87 -58 183 l-7 72 -123 0 -124 0 0 -62 c1 -92 25 -212 55 -274 51 -104
155 -182 285 -215 31 -8 103 -14 165 -13 231 1 392 92 454 258 35 95 44 175
39 379 -6 216 -21 285 -82 374 -48 70 -128 119 -330 203 -197 81 -248 114
-286 180 -24 42 -25 53 -25 196 0 148 1 152 30 209 38 74 99 116 178 123 150
12 242 -77 256 -248 l6 -75 129 -3 129 -3 -7 86 c-20 245 -117 387 -302 445
-74 22 -209 32 -279 20z"/>
<path d="M36321 3674 c-168 -45 -297 -192 -336 -382 -26 -122 -35 -298 -35
-678 0 -631 26 -787 159 -935 163 -182 489 -201 674 -39 88 78 150 213 163
360 l7 70 -124 0 -125 0 -11 -70 c-24 -155 -91 -231 -210 -238 -116 -8 -190
40 -231 150 -39 105 -47 217 -47 698 1 587 13 690 97 785 44 50 89 68 169 68
129 -2 206 -88 225 -253 l7 -60 123 0 124 0 0 35 c0 20 -7 70 -16 112 -41 202
-156 332 -329 378 -73 19 -212 18 -284 -1z"/>
<path d="M21010 2610 l0 -1060 253 0 c138 0 284 5 322 10 146 21 287 123 348
252 57 121 77 325 77 803 0 636 -29 786 -179 928 -120 113 -182 127 -552 127
l-269 0 0 -1060z m591 802 c63 -33 104 -91 126 -179 21 -91 36 -486 28 -808
-9 -421 -25 -506 -109 -583 -57 -53 -94 -62 -253 -62 l-133 0 0 830 0 830 144
0 c138 0 146 -1 197 -28z"/>
<path d="M25540 2803 c0 -926 1 -948 50 -1042 63 -124 173 -189 353 -206 l67
-7 0 111 0 111 -27 0 c-90 0 -171 61 -192 143 -8 33 -11 291 -11 901 l0 856
-120 0 -120 0 0 -867z"/>
<path d="M33910 2610 l0 -1060 410 0 410 0 0 115 0 115 -280 0 -280 0 0 945 0
945 -130 0 -130 0 0 -1060z"/>
<path d="M34990 2610 l0 -1060 405 0 405 0 0 115 0 115 -280 0 -280 0 0 945 0
945 -125 0 -125 0 0 -1060z"/>
<path d="M11260 3505 l0 -135 140 0 140 0 0 135 0 135 -140 0 -140 0 0 -135z"/>
<path d="M17950 3505 l0 -135 140 0 140 0 0 135 0 135 -140 0 -140 0 0 -135z"/>
<path d="M6730 3300 l0 -210 -90 0 -90 0 0 -90 0 -89 88 -3 87 -3 5 -525 c5
-518 5 -526 28 -581 58 -145 159 -217 332 -238 133 -17 120 -27 120 99 l0 110
-27 0 c-83 0 -164 48 -194 114 -17 38 -19 74 -19 534 l0 492 115 0 115 0 0 90
0 90 -115 0 -115 0 0 210 0 210 -120 0 -120 0 0 -210z"/>
<path d="M10560 3300 l0 -210 -85 0 -85 0 0 -90 0 -90 84 0 85 0 3 -522 c4
-518 4 -524 27 -586 31 -85 109 -169 189 -205 58 -26 240 -55 262 -42 6 3 10
52 10 109 l0 103 -54 6 c-100 10 -161 57 -185 142 -7 27 -11 199 -11 518 l0
477 120 0 120 0 0 90 0 90 -120 0 -120 0 0 210 0 210 -120 0 -120 0 0 -210z"/>
<path d="M18610 3300 l0 -210 -90 0 -90 0 0 -90 0 -90 90 0 90 0 0 -488 c0
-311 4 -510 11 -548 34 -186 155 -291 362 -314 53 -6 102 -8 107 -5 6 3 10 52
10 109 l0 103 -54 6 c-96 10 -157 54 -184 136 -9 24 -12 179 -12 517 l0 484
120 0 120 0 0 90 0 90 -120 0 -120 0 0 210 0 210 -120 0 -120 0 0 -210z"/>
<path d="M32620 3300 l0 -210 -90 0 -90 0 0 -90 0 -89 88 -3 87 -3 5 -525 c5
-520 5 -525 28 -583 56 -139 166 -217 332 -237 133 -16 120 -26 120 100 l0
110 -27 0 c-83 0 -164 48 -194 114 -17 38 -19 74 -19 534 l0 492 115 0 115 0
0 90 0 90 -115 0 -115 0 0 210 0 210 -120 0 -120 0 0 -210z"/>
<path d="M3615 3109 c-83 -12 -176 -60 -219 -113 -46 -55 -83 -137 -101 -223
-40 -183 -39 -728 1 -905 52 -229 182 -338 404 -338 221 0 357 113 405 336 39
182 39 736 0 917 -41 194 -150 301 -330 327 -79 11 -77 11 -160 -1z m169 -232
c86 -48 104 -122 112 -447 7 -267 -5 -487 -31 -560 -28 -80 -86 -122 -166
-122 -81 0 -144 53 -169 141 -21 72 -32 316 -26 541 9 323 32 411 120 451 55
25 112 24 160 -4z"/>
<path d="M4868 3110 c-62 -11 -143 -56 -179 -99 l-29 -36 0 58 0 57 -115 0
-115 0 0 -770 0 -770 120 0 120 0 0 591 c0 435 3 602 12 632 25 82 113 136
199 122 54 -9 100 -43 129 -95 l25 -45 3 -602 3 -603 114 0 115 0 0 634 c0
616 -1 636 -21 702 -18 57 -31 77 -82 129 -46 45 -75 66 -112 78 -67 21 -130
27 -187 17z"/>
<path d="M5892 3109 c-158 -19 -292 -136 -337 -293 -13 -43 -16 -85 -13 -155
7 -184 69 -258 327 -390 86 -44 175 -93 198 -110 158 -114 124 -371 -54 -409
-128 -28 -234 52 -250 189 l-6 49 -113 0 c-62 0 -115 -4 -118 -8 -11 -19 16
-151 44 -210 71 -153 217 -242 395 -242 282 0 482 240 436 521 -28 174 -97
250 -333 370 -202 101 -242 129 -269 182 -47 91 -18 221 59 271 129 83 291 -7
292 -161 l0 -43 121 0 122 0 -7 66 c-27 259 -221 406 -494 373z"/>
<path d="M7967 3110 c-79 -10 -194 -68 -246 -125 -23 -25 -44 -45 -46 -45 -3
0 -5 34 -5 75 l0 75 -115 0 -115 0 2 -767 3 -768 117 -3 117 -3 3 563 3 563
23 50 c46 100 123 149 251 161 l71 7 0 113 c0 63 -1 113 -2 113 -2 -1 -29 -5
-61 -9z"/>
<path d="M9733 3109 c-129 -16 -249 -108 -292 -223 -49 -132 -56 -199 -56
-561 0 -371 10 -461 60 -573 68 -148 191 -222 370 -222 249 0 386 132 419 403
l6 47 -118 0 -118 0 -11 -65 c-19 -111 -80 -168 -179 -168 -57 0 -111 26 -137
67 -9 13 -24 50 -34 82 -16 52 -18 99 -18 419 0 383 6 444 48 506 40 58 71 74
147 74 54 0 75 -4 97 -21 40 -29 71 -90 79 -151 l6 -53 119 0 119 0 -6 48 c-9
73 -32 158 -54 202 -74 145 -240 215 -447 189z"/>
<path d="M12163 3110 c-162 -22 -269 -127 -317 -314 -27 -103 -39 -307 -33
-561 7 -333 31 -455 111 -564 74 -100 193 -147 351 -138 253 14 362 143 396
473 18 179 7 652 -19 769 -40 183 -126 287 -267 323 -62 16 -154 20 -222 12z
m151 -224 c112 -47 130 -135 124 -617 -5 -356 -11 -402 -59 -463 -48 -61 -155
-79 -223 -37 -89 56 -111 184 -103 625 5 317 14 378 64 444 44 58 125 78 197
48z"/>
<path d="M13414 3110 c-68 -14 -111 -36 -164 -86 l-50 -47 0 57 0 56 -110 0
-110 0 0 -770 0 -770 115 0 114 0 3 603 c3 600 3 602 25 644 73 135 250 136
317 1 l26 -52 0 -598 0 -598 120 0 121 0 -3 643 c-4 721 -2 699 -78 796 -75
95 -209 144 -326 121z"/>
<path d="M19640 3109 c-166 -19 -277 -123 -324 -304 -31 -119 -38 -247 -33
-547 5 -306 13 -375 57 -491 30 -80 111 -165 192 -203 59 -27 71 -29 183 -29
144 1 206 21 285 92 83 75 140 198 140 304 l0 49 -114 0 -114 0 -11 -62 c-20
-115 -84 -173 -189 -171 -138 3 -191 117 -192 411 l0 112 317 0 316 0 -6 183
c-8 208 -18 294 -48 390 -63 198 -226 293 -459 266z m137 -220 c38 -14 71 -46
93 -90 22 -41 40 -169 40 -276 l0 -73 -196 0 -197 0 6 133 c8 186 36 264 109
300 38 19 104 22 145 6z"/>
<path d="M22630 3109 c-37 -5 -90 -21 -127 -39 -173 -85 -233 -275 -233 -741
0 -291 27 -495 80 -599 65 -128 193 -199 357 -200 221 0 374 119 418 327 8 37
15 80 15 96 l0 27 -120 0 -120 0 0 -27 c0 -77 -45 -160 -103 -189 -41 -22
-123 -22 -164 0 -38 19 -76 67 -92 116 -14 42 -34 266 -29 335 l3 50 315 3
315 2 -2 143 c-7 334 -46 492 -145 593 -83 86 -214 123 -368 103z m178 -238
c64 -45 92 -142 92 -318 l0 -103 -195 0 -195 0 0 58 c0 94 19 240 35 280 34
79 89 114 176 109 38 -2 65 -10 87 -26z"/>
<path d="M24760 3109 c-166 -19 -277 -123 -324 -305 -30 -116 -39 -259 -33
-554 5 -297 14 -367 59 -487 28 -76 111 -162 190 -199 59 -27 71 -29 183 -29
144 1 206 21 285 92 82 73 125 163 139 286 l7 67 -117 0 -117 0 -11 -61 c-20
-114 -79 -172 -176 -172 -149 0 -204 110 -205 411 l0 112 317 0 316 0 -6 188
c-9 279 -39 420 -112 515 -82 107 -223 156 -395 136z m143 -223 c50 -20 93
-77 107 -138 6 -29 14 -108 17 -175 l6 -123 -196 0 -197 0 0 93 c0 188 33 293
106 334 45 26 109 30 157 9z"/>
<path d="M26535 3109 c-170 -25 -278 -139 -320 -336 -26 -121 -38 -422 -26
-641 16 -285 45 -393 134 -489 69 -75 170 -113 297 -113 221 0 357 113 406
337 39 182 36 760 -6 931 -22 93 -39 129 -83 186 -78 99 -240 150 -402 125z
m170 -232 c84 -48 103 -123 111 -447 7 -251 -6 -491 -31 -560 -28 -80 -86
-122 -166 -122 -81 0 -144 53 -169 141 -21 75 -33 307 -26 541 7 255 14 312
49 380 44 85 147 115 232 67z"/>
<path d="M27789 3109 c-61 -9 -116 -39 -167 -89 l-42 -42 0 56 0 56 -115 0
-115 0 0 -1055 0 -1055 120 0 120 0 0 336 0 337 49 -46 c120 -112 326 -101
443 24 55 58 81 121 105 252 26 135 25 749 0 887 -19 102 -57 195 -101 247
-58 68 -188 108 -297 92z m84 -242 c39 -30 63 -74 77 -144 16 -80 24 -524 11
-673 -13 -165 -23 -201 -67 -250 -90 -100 -258 -55 -294 80 -7 27 -10 181 -8
469 l3 429 30 43 c43 60 86 81 157 77 41 -3 65 -11 91 -31z"/>
<path d="M28938 3109 c-62 -10 -143 -54 -179 -98 l-29 -36 0 58 0 57 -115 0
-115 0 0 -770 0 -770 120 0 120 0 0 591 c0 435 3 602 12 632 25 82 113 136
199 122 54 -9 100 -43 129 -95 l25 -45 3 -603 3 -603 117 3 117 3 5 610 c5
554 7 613 22 642 66 120 240 120 308 1 l25 -43 3 -607 3 -608 120 0 120 0 -3
643 c-3 578 -5 647 -21 694 -23 67 -71 130 -131 170 -61 42 -113 55 -206 55
-101 0 -170 -27 -246 -96 l-59 -53 -43 44 c-76 79 -198 120 -304 102z"/>
<path d="M30590 3109 c-37 -5 -90 -21 -127 -39 -173 -85 -233 -275 -233 -741
0 -291 27 -495 80 -599 65 -128 193 -199 357 -200 221 0 374 119 418 327 8 37
15 80 15 96 l0 27 -120 0 -120 0 0 -27 c0 -77 -45 -160 -103 -189 -41 -22
-123 -22 -164 0 -38 19 -76 67 -92 116 -14 42 -34 266 -29 335 l3 50 315 3
315 2 -2 143 c-7 334 -46 492 -145 593 -83 86 -214 123 -368 103z m178 -238
c64 -45 92 -142 92 -318 l0 -103 -195 0 -195 0 0 58 c0 94 19 240 35 280 34
79 89 114 176 109 38 -2 65 -10 87 -26z"/>
<path d="M31828 3109 c-65 -10 -133 -46 -174 -91 l-34 -38 0 55 0 55 -115 0
-115 0 0 -770 0 -771 118 3 117 3 5 610 c5 554 7 613 22 642 65 117 238 120
310 5 l23 -37 5 -610 5 -610 118 -3 117 -3 0 623 c0 672 -2 693 -53 781 -68
116 -208 179 -349 156z"/>
<path d="M8240 2498 c0 -605 5 -696 39 -774 28 -61 95 -129 160 -161 49 -24
68 -28 146 -28 78 0 97 4 147 28 31 15 70 43 87 62 17 19 33 35 36 35 3 0 5
-25 5 -55 l0 -55 115 0 115 0 0 770 0 770 -120 0 -120 0 0 -582 c0 -391 -4
-596 -11 -623 -24 -87 -88 -138 -174 -138 -83 0 -141 42 -170 122 -13 37 -15
129 -15 632 l0 589 -120 0 -120 0 0 -592z"/>
<path d="M11280 2320 l0 -771 118 3 117 3 3 768 2 767 -120 0 -120 0 0 -770z"/>
<path d="M17972 2323 l3 -768 118 -3 117 -3 0 771 0 770 -120 0 -120 0 2 -767z"/>
<path d="M23274 3073 c6 -22 366 -1514 366 -1519 0 -8 249 -4 253 4 5 7 367
1515 367 1526 0 3 -58 6 -130 6 -71 0 -130 -1 -130 -3 0 -6 -220 -1105 -226
-1127 -4 -16 -46 171 -124 550 l-116 575 -133 3 c-123 2 -132 1 -127 -15z"/>
<path d="M37247 1843 c-4 -3 -7 -71 -7 -150 l0 -143 145 0 145 0 0 150 0 150
-138 0 c-76 0 -142 -3 -145 -7z"/>
</g>
</svg>
