<?xml version="1.0" standalone="no"?>
<!DOCTYPE svg PUBLIC "-//W3C//DTD SVG 20010904//EN"
 "http://www.w3.org/TR/2001/REC-SVG-20010904/DTD/svg10.dtd">
<svg version="1.0" xmlns="http://www.w3.org/2000/svg"
 width="100vh" height="100vh" viewBox="0 0 1967.000000 634.000000"
 preserveAspectRatio="xMidYMid meet">

<g transform="translate(0.000000,634.000000) scale(0.100000,-0.100000)"
fill="#fff" stroke="none">
<path d="M3420 4720 l0 -130 80 0 80 0 0 130 0 130 -80 0 -80 0 0 -130z"/>
<path d="M10760 4720 l0 -130 80 0 80 0 0 130 0 130 -80 0 -80 0 0 -130z"/>
<path d="M4405 4466 c-312 -61 -515 -314 -515 -641 0 -258 142 -490 365 -601
269 -132 609 -55 781 179 40 54 104 166 104 182 0 3 -39 5 -88 5 l-87 0 -45
-67 c-89 -133 -228 -207 -385 -207 -133 1 -235 39 -327 123 -77 71 -148 215
-148 303 l0 28 560 0 560 0 0 60 c0 209 -112 431 -275 541 -134 92 -328 128
-500 95z m203 -146 c105 -17 167 -46 236 -110 34 -32 74 -81 89 -109 29 -52
67 -154 67 -178 0 -11 -83 -13 -470 -13 l-470 0 6 28 c46 209 182 348 374 382
65 11 97 11 168 0z"/>
<path d="M7340 4469 c-242 -42 -430 -204 -503 -434 -19 -59 -22 -92 -22 -215
1 -124 4 -154 24 -210 69 -198 233 -362 421 -421 129 -40 320 -35 434 13 139
58 257 168 330 308 20 37 36 71 36 74 0 3 -40 6 -90 6 -83 0 -90 -2 -101 -22
-27 -53 -96 -132 -147 -168 -148 -106 -362 -112 -527 -15 -113 66 -214 234
-215 358 l0 27 560 0 560 0 0 54 c0 30 -6 87 -14 128 -48 250 -208 434 -436
502 -67 21 -235 29 -310 15z m273 -170 c103 -35 182 -101 240 -200 24 -41 67
-156 67 -179 0 -7 -154 -10 -470 -10 -258 0 -470 4 -470 8 0 5 7 33 16 63 53
182 187 306 364 339 64 12 184 2 253 -21z"/>
<path d="M11730 4465 c-182 -33 -358 -168 -438 -336 -53 -111 -66 -172 -66
-304 0 -133 13 -194 67 -305 33 -67 59 -102 122 -166 128 -129 243 -181 419
-191 274 -14 489 115 620 375 l26 52 -92 0 -93 0 -30 -51 c-136 -232 -465
-295 -686 -133 -95 70 -165 191 -185 322 l-7 42 567 0 c311 0 566 3 566 8 0 4
-5 48 -10 98 -44 422 -365 664 -780 589z m291 -164 c149 -47 250 -159 302
-338 l16 -53 -474 0 -473 0 15 58 c24 93 63 163 123 223 126 127 307 167 491
110z"/>
<path d="M2310 4455 c-99 -27 -198 -83 -261 -147 l-59 -60 0 96 0 96 -75 0
-75 0 0 -825 0 -825 75 0 75 0 0 295 c0 162 1 295 3 295 2 0 30 -27 64 -59
110 -107 234 -154 408 -155 201 -1 321 48 456 183 98 99 149 190 175 312 21
100 14 279 -15 369 -60 189 -222 351 -411 411 -87 28 -281 36 -360 14z m259
-146 c78 -18 154 -62 222 -129 102 -102 149 -220 149 -375 0 -142 -46 -253
-146 -352 -185 -186 -458 -187 -642 -3 -174 173 -206 444 -78 644 63 98 167
179 271 212 49 15 164 17 224 3z"/>
<path d="M9632 4450 c-99 -26 -165 -63 -239 -135 l-63 -61 0 93 0 93 -80 0
-80 0 0 -825 0 -825 80 0 80 0 0 294 0 294 59 -58 c174 -170 471 -208 709 -90
158 78 287 243 328 416 25 108 16 306 -19 404 -110 309 -450 485 -775 400z
m297 -149 c208 -65 346 -263 344 -496 -1 -154 -50 -264 -163 -368 -65 -61
-117 -89 -205 -112 -155 -40 -295 3 -421 129 -115 115 -161 236 -152 402 6
109 33 182 97 267 124 166 319 235 500 178z"/>
<path d="M13235 4458 c-69 -13 -163 -60 -218 -108 l-47 -42 0 66 0 66 -75 0
-75 0 0 -620 0 -620 74 0 74 0 4 413 c4 397 5 414 27 474 58 161 223 250 414
223 160 -23 238 -97 273 -259 10 -50 14 -160 14 -458 l0 -393 81 0 81 0 -5
438 c-5 480 -6 497 -67 610 -57 108 -157 178 -295 207 -78 16 -184 18 -260 3z"/>
<path d="M14660 4454 c-226 -48 -423 -243 -476 -470 -25 -106 -16 -306 18
-401 54 -153 169 -282 313 -354 235 -117 539 -75 713 97 l52 53 0 -90 0 -89
80 0 80 0 0 620 0 620 -80 0 -80 0 0 -92 0 -91 -63 60 c-110 106 -237 153
-407 152 -47 0 -114 -7 -150 -15z m284 -154 c124 -39 257 -167 306 -297 28
-73 38 -218 20 -294 -31 -133 -128 -268 -243 -337 -81 -49 -194 -70 -288 -54
-193 33 -348 180 -394 373 -27 115 -11 250 41 357 32 65 131 174 191 209 109
64 247 80 367 43z"/>
<path d="M16240 4454 c-172 -36 -335 -162 -418 -321 -54 -104 -72 -182 -72
-318 0 -127 17 -208 61 -299 114 -235 353 -370 619 -352 152 11 314 84 395
179 l35 41 0 -92 0 -92 80 0 80 0 0 620 0 620 -80 0 -80 0 0 -92 0 -92 -57 57
c-65 66 -164 120 -254 142 -79 18 -222 18 -309 -1z m284 -154 c124 -39 256
-167 306 -297 28 -72 38 -212 20 -292 -31 -142 -147 -295 -271 -355 -265 -128
-591 42 -654 341 -8 38 -15 88 -15 113 0 66 26 177 56 238 32 65 131 174 191
209 109 64 247 80 367 43z"/>
<path d="M5812 4445 c-50 -15 -104 -53 -149 -104 l-33 -36 0 68 0 67 -75 0
-75 0 0 -620 0 -620 79 0 80 0 3 433 c3 419 4 434 26 488 33 82 98 137 182
154 74 14 70 9 70 101 l0 84 -32 -1 c-18 0 -52 -6 -76 -14z"/>
<path d="M6513 4446 c-59 -19 -107 -51 -148 -99 l-35 -41 0 67 0 67 -75 0 -75
0 0 -620 0 -620 80 0 79 0 3 438 c3 397 5 441 22 486 33 86 104 136 229 161
27 5 27 6 27 90 l0 85 -32 -1 c-18 0 -52 -6 -75 -13z"/>
<path d="M17723 4446 c-57 -18 -104 -49 -147 -96 l-36 -40 0 65 0 65 -75 0
-75 0 0 -620 0 -620 80 0 79 0 3 438 c3 397 5 441 22 486 35 90 98 134 229
161 27 5 27 6 27 90 l0 85 -32 -1 c-18 0 -52 -6 -75 -13z"/>
<path d="M3420 3820 l0 -620 80 0 80 0 0 620 0 620 -80 0 -80 0 0 -620z"/>
<path d="M10760 3820 l0 -620 80 0 80 0 0 620 0 620 -80 0 -80 0 0 -620z"/>


</g>
<g transform="translate(0.000000,634.000000) scale(0.100000,-0.100000)"
fill="red" stroke="none">
<path d="M2800 1982 l0 -478 45 0 c25 0 46 4 46 8 1 5 3 98 4 208 1 110 3 203
4 208 0 4 84 7 186 7 l185 -1 0 48 0 48 -187 2 -188 3 0 160 0 160 188 3 187
2 0 50 0 50 -235 0 -235 0 0 -478z"/>
<path d="M3980 1982 l0 -478 48 1 47 1 3 477 2 477 -50 0 -50 0 0 -478z"/>
<path d="M4782 1983 l3 -478 35 -1 c19 0 40 1 46 3 8 3 10 120 7 416 l-5 412
259 -415 259 -415 57 0 57 -1 0 478 0 478 -48 0 -48 0 3 -97 c2 -54 4 -240 6
-415 l3 -316 -22 31 c-11 18 -128 204 -258 415 l-238 382 -59 0 -59 0 2 -477z"/>
<path d="M6212 1983 l3 -478 235 -1 c129 0 241 2 248 4 7 2 12 22 12 48 l0 44
-200 0 -200 0 2 168 3 167 195 0 195 0 3 48 3 47 -200 0 -201 0 0 165 0 165
200 0 200 0 0 50 0 50 -250 0 -250 0 2 -477z"/>
<path d="M7567 2465 c-62 -16 -116 -60 -147 -121 -20 -39 -25 -63 -25 -124 0
-131 37 -175 203 -242 120 -48 162 -77 192 -129 44 -79 9 -199 -71 -239 -110
-57 -235 6 -255 128 l-7 42 -47 0 -47 0 8 -54 c14 -106 85 -197 176 -227 47
-15 169 -7 209 14 92 48 146 147 148 271 1 68 -3 89 -24 131 -32 65 -78 95
-215 145 -141 50 -175 82 -175 163 0 91 66 160 154 160 77 0 128 -45 146 -128
5 -28 10 -30 52 -33 46 -3 47 -3 42 25 -16 103 -60 175 -128 207 -46 22 -130
27 -189 11z"/>
<path d="M8490 2410 l0 -50 95 0 95 0 2 -427 3 -428 35 -1 c19 0 41 2 48 4 9
3 12 98 12 428 l0 424 95 0 95 0 0 50 0 50 -240 0 -240 0 0 -50z"/>
<path d="M10215 2413 l0 -48 95 -5 95 -5 0 -425 0 -424 48 -1 47 -1 0 428 0
428 95 0 95 0 0 50 0 50 -238 0 -238 0 1 -47z"/>
<path d="M11305 1984 l0 -478 48 -1 47 -1 0 428 0 428 123 0 c145 0 182 -9
224 -52 63 -65 81 -163 44 -236 -37 -73 -94 -102 -201 -102 -38 0 -70 -2 -70
-4 0 -3 63 -108 140 -233 l140 -228 55 0 c30 -1 55 2 55 5 0 4 -50 87 -110
185 -61 98 -109 179 -108 180 2 1 22 7 46 14 81 23 152 110 169 206 28 154
-47 292 -187 345 -23 8 -102 15 -225 18 l-190 4 0 -478z"/>
<path d="M12662 1991 c-100 -258 -182 -473 -182 -478 0 -5 21 -9 47 -8 l47 1
32 79 c17 44 43 112 58 150 l26 70 205 0 c122 0 208 -4 213 -10 6 -6 31 -66
57 -135 26 -69 51 -132 55 -140 9 -17 100 -22 100 -6 0 7 -228 603 -357 934
-3 7 -26 12 -62 12 l-57 0 -182 -469z m326 136 c45 -122 82 -225 82 -229 0 -5
-76 -8 -170 -8 -103 0 -170 4 -170 10 0 17 163 450 169 450 3 0 43 -100 89
-223z"/>
<path d="M13784 2442 c3 -10 84 -225 179 -477 l174 -460 38 0 38 0 178 475
c98 261 179 476 179 478 0 1 -22 2 -48 2 l-48 0 -149 -400 c-82 -220 -152
-395 -156 -389 -4 7 -71 187 -150 400 l-144 389 -48 0 c-42 0 -48 -2 -43 -18z"/>
<path d="M15170 1982 l0 -477 248 0 247 0 3 48 3 47 -201 0 -200 0 2 168 3
167 195 0 195 0 3 48 3 47 -200 0 -201 0 0 165 0 165 200 0 200 0 0 50 0 50
-250 0 -250 0 0 -478z"/>
<path d="M16375 1983 l0 -478 205 -1 c113 0 211 2 218 4 7 2 12 22 12 48 l0
44 -170 0 -170 0 0 430 0 430 -48 0 -47 0 0 -477z"/>
</g>
</svg>
